{"glyphs":{"0":{"ha":1014,"x_min":0,"x_max":0,"o":"m 506 -19 b 957 486 783 -19 957 211 l 957 489 b 508 992 957 764 785 992 b 57 486 232 992 57 761 l 57 483 b 506 -19 57 208 228 -19 z m 508 219 b 328 486 400 219 328 331 l 328 489 b 506 753 328 644 399 753 b 686 486 613 753 686 640 l 686 483 b 508 219 686 329 617 219 z "},"1":{"ha":586,"x_min":0,"x_max":0,"o":"m 226 0 l 492 0 l 492 979 l 296 979 l 11 899 l 63 690 l 226 728 z "},"2":{"ha":867,"x_min":0,"x_max":0,"o":"m 46 0 l 815 0 l 815 219 l 414 219 l 581 336 b 806 676 725 440 806 521 l 806 679 b 447 989 806 863 660 989 b 51 781 258 989 156 915 l 233 629 b 426 754 310 717 361 754 b 535 656 492 754 535 717 b 410 481 535 597 500 551 l 46 203 z "},"3":{"ha":863,"x_min":0,"x_max":0,"o":"m 439 -19 b 814 304 656 -19 814 107 l 814 307 b 563 581 814 472 701 550 l 794 779 l 794 972 l 92 972 l 92 754 l 464 754 l 240 553 l 279 413 l 393 413 b 551 313 494 413 551 375 l 551 310 b 426 211 551 250 503 211 b 194 322 338 211 264 251 l 25 153 b 439 -19 119 49 251 -19 z "},"4":{"ha":957,"x_min":0,"x_max":0,"o":"m 533 0 l 794 0 l 794 189 l 918 189 l 918 390 l 794 390 l 794 979 l 522 979 l 18 379 l 63 189 l 533 189 z m 301 389 l 533 668 l 533 389 z "},"5":{"ha":875,"x_min":0,"x_max":0,"o":"m 421 -19 b 822 326 657 -19 822 110 l 822 329 b 489 638 822 540 664 638 b 333 603 424 638 378 624 l 342 750 l 779 750 l 779 972 l 129 972 l 101 479 l 261 390 b 417 439 307 418 357 439 b 560 326 501 439 560 396 l 560 324 b 417 210 560 254 506 210 b 181 315 335 210 260 249 l 26 135 b 421 -19 128 40 249 -19 z "},"6":{"ha":919,"x_min":0,"x_max":0,"o":"m 474 -19 b 860 331 686 -19 860 113 l 860 333 b 539 636 860 528 710 636 b 329 561 443 636 381 600 b 513 768 342 683 399 768 b 706 694 590 768 646 739 l 832 885 b 508 992 739 954 644 992 b 57 458 204 992 57 761 l 57 456 b 176 92 57 274 104 164 b 474 -19 246 22 336 -19 z m 463 190 b 325 317 378 190 325 246 l 325 319 b 460 443 325 389 375 443 b 597 318 544 443 597 388 l 597 315 b 463 190 597 244 547 190 z "},"7":{"ha":853,"x_min":0,"x_max":0,"o":"m 86 0 l 383 0 l 813 769 l 813 972 l 64 972 l 64 746 l 514 746 z "},"8":{"ha":875,"x_min":0,"x_max":0,"o":"m 438 -17 b 838 269 671 -17 838 96 l 838 272 b 671 504 838 393 769 458 b 804 715 746 546 804 610 l 804 718 b 438 989 804 874 656 989 b 71 718 219 989 71 874 l 71 715 b 204 504 71 610 129 546 b 38 271 100 460 38 389 l 38 268 b 438 -17 38 99 204 -17 z m 438 578 b 318 685 365 578 318 624 l 318 688 b 438 789 318 742 364 789 b 557 686 511 789 557 740 l 557 683 b 438 578 557 622 510 578 z m 438 185 b 297 294 347 185 297 236 l 297 297 b 438 403 297 360 356 403 b 578 297 519 403 578 360 l 578 294 b 438 185 578 236 528 185 z "},"9":{"ha":919,"x_min":0,"x_max":0,"o":"m 413 -19 b 863 515 704 -19 863 197 l 863 518 b 746 878 863 697 817 808 b 447 992 672 951 589 992 b 60 638 225 992 60 853 l 60 635 b 386 328 60 444 197 328 b 592 407 472 328 542 360 b 408 204 579 282 519 204 b 200 282 331 204 267 229 l 74 96 b 413 -19 163 26 268 -19 z m 460 521 b 321 649 375 521 321 575 l 321 651 b 457 782 321 726 372 782 b 596 650 542 782 596 725 l 596 647 b 460 521 596 576 544 521 z "}," ":{"ha":385,"x_min":0,"x_max":0,"o":""},"!":{"ha":450,"x_min":0,"x_max":0,"o":"m 156 317 l 294 317 l 375 854 l 375 972 l 75 972 l 75 854 z m 88 0 l 363 0 l 363 236 l 88 236 z "},"\"":{"ha":746,"x_min":0,"x_max":0,"o":"m 403 474 l 542 474 l 718 965 l 718 972 l 435 972 z m 47 474 l 185 474 l 361 965 l 361 972 l 78 972 z "},"#":{"ha":981,"x_min":0,"x_max":0,"o":"m 117 0 l 318 0 l 350 188 l 526 188 l 493 0 l 694 0 l 728 188 l 893 188 l 893 411 l 765 411 l 792 567 l 939 567 l 939 790 l 831 790 l 861 972 l 660 972 l 629 790 l 453 790 l 485 972 l 283 972 l 253 790 l 86 790 l 86 567 l 214 567 l 188 411 l 40 411 l 40 188 l 149 188 z m 382 406 l 411 572 l 596 572 l 568 406 z "},"$":{"ha":925,"x_min":0,"x_max":0,"o":"m 410 -136 l 554 -136 l 554 0 b 882 292 751 18 882 122 l 882 294 b 550 597 882 467 771 546 l 550 758 b 736 675 613 743 679 715 l 850 861 b 557 969 767 918 671 957 l 557 1053 l 413 1053 l 413 974 b 81 681 200 958 81 844 l 81 678 b 418 378 81 506 194 429 l 418 211 b 160 325 332 225 249 263 l 35 140 b 410 3 139 65 274 17 z m 419 621 b 325 699 344 642 325 663 l 325 701 b 419 771 325 738 351 765 z m 549 203 l 549 356 b 642 276 621 335 642 314 l 642 274 b 549 203 642 233 613 210 z "},"%":{"ha":1249,"x_min":0,"x_max":0,"o":"m 299 463 b 550 724 449 463 550 581 l 550 726 b 300 986 550 868 451 986 b 49 725 147 986 49 868 l 49 722 b 299 463 49 579 149 463 z m 156 0 l 343 0 l 1093 972 l 906 972 z m 949 -14 b 1200 247 1099 -14 1200 106 l 1200 250 b 950 510 1200 393 1101 510 b 699 249 797 510 699 392 l 699 246 b 949 -14 699 104 799 -14 z m 300 615 b 218 724 254 615 218 661 l 218 726 b 299 833 218 788 250 833 b 381 725 346 833 381 786 l 381 722 b 300 615 381 661 347 615 z m 950 139 b 868 247 904 139 868 186 l 868 250 b 949 357 868 313 899 357 b 1031 249 996 357 1031 311 l 1031 246 b 950 139 1031 185 997 139 z "},"&":{"ha":969,"x_min":0,"x_max":0,"o":"m 765 -19 l 947 111 l 817 240 b 944 446 863 303 904 372 l 767 535 b 675 381 738 479 707 426 l 567 486 b 757 739 681 539 757 619 l 757 742 b 468 992 757 883 644 992 b 163 728 278 992 163 869 l 163 725 b 226 539 163 663 182 603 b 29 267 94 479 29 388 l 29 264 b 376 -17 29 88 178 -17 b 665 82 489 -17 583 19 z m 440 607 b 390 718 407 649 390 681 l 390 721 b 468 807 390 772 422 807 b 543 729 513 807 543 776 l 543 726 b 440 607 543 675 510 638 z m 413 182 b 299 278 346 182 299 221 l 299 281 b 368 386 299 319 319 357 l 528 224 b 413 182 490 199 451 182 z "},"’":{"ha":394,"x_min":0,"x_max":0,"o":"m 54 469 b 339 751 228 475 339 546 l 339 972 l 65 972 l 65 701 l 171 701 b 32 571 175 626 125 581 z "},"(":{"ha":618,"x_min":0,"x_max":0,"o":"m 467 -196 l 576 -32 b 319 399 397 92 319 217 b 576 829 319 581 397 706 l 467 993 b 61 399 207 857 61 681 b 467 -196 61 117 207 -60 z "},")":{"ha":618,"x_min":0,"x_max":0,"o":"m 151 -196 b 557 399 411 -60 557 117 b 151 993 557 681 411 857 l 42 829 b 299 399 221 706 299 581 b 42 -32 299 217 221 92 z "},"*":{"ha":590,"x_min":0,"x_max":0,"o":"m 222 471 l 368 471 l 333 654 l 476 532 l 551 660 l 375 722 l 551 785 l 476 914 l 333 792 l 368 975 l 222 975 l 257 792 l 114 914 l 39 785 l 215 722 l 39 660 l 114 532 l 257 654 z "},"+":{"ha":889,"x_min":0,"x_max":0,"o":"m 324 133 l 565 133 l 565 372 l 800 372 l 800 606 l 565 606 l 565 844 l 324 844 l 324 606 l 89 606 l 89 372 l 324 372 z "},",":{"ha":394,"x_min":0,"x_max":0,"o":"m 49 -229 b 335 53 222 -224 335 -153 l 335 274 l 60 274 l 60 3 l 167 3 b 28 -128 169 -72 121 -117 z "},"-":{"ha":567,"x_min":0,"x_max":0,"o":"m 56 318 l 511 318 l 511 550 l 56 550 z "},".":{"ha":394,"x_min":0,"x_max":0,"o":"m 60 0 l 335 0 l 335 271 l 60 271 z "},"/":{"ha":743,"x_min":0,"x_max":0,"o":"m -53 -178 l 161 -178 l 776 1108 l 563 1108 z "},":":{"ha":408,"x_min":0,"x_max":0,"o":"m 67 481 l 342 481 l 342 751 l 67 751 z m 67 0 l 342 0 l 342 271 l 67 271 z "},";":{"ha":408,"x_min":0,"x_max":0,"o":"m 67 481 l 342 481 l 342 751 l 67 751 z m 56 -232 b 342 50 229 -226 342 -156 l 342 271 l 67 271 l 67 0 l 174 0 b 35 -131 176 -75 128 -119 z "},"<":{"ha":894,"x_min":0,"x_max":0,"o":"m 781 90 l 781 338 l 326 489 l 781 640 l 781 886 l 90 611 l 90 365 z "},"=":{"ha":888,"x_min":0,"x_max":0,"o":"m 103 560 l 785 560 l 785 792 l 103 792 z m 103 186 l 785 186 l 785 418 l 103 418 z "},">":{"ha":894,"x_min":0,"x_max":0,"o":"m 114 90 l 804 365 l 804 611 l 114 886 l 114 639 l 568 488 l 114 336 z "},"?":{"ha":750,"x_min":0,"x_max":0,"o":"m 265 317 l 433 317 l 450 406 b 721 693 604 443 721 518 l 721 696 b 374 988 721 876 578 988 b 14 842 214 988 99 926 l 153 658 b 356 750 218 717 290 750 b 460 674 422 750 460 721 l 460 672 b 242 561 460 613 403 575 l 231 549 z m 208 0 l 482 0 l 482 236 l 208 236 z "},"@":{"ha":1340,"x_min":0,"x_max":0,"o":"m 682 -225 b 1050 -121 826 -225 943 -186 l 1022 -76 b 682 -169 918 -137 819 -169 b 121 382 351 -169 121 72 b 678 936 121 689 354 936 b 1218 451 994 936 1218 708 b 1054 169 1218 267 1144 169 b 964 251 997 169 964 206 b 969 313 964 272 967 292 l 1033 671 l 818 704 l 801 619 b 615 722 765 676 706 722 b 308 361 450 722 308 560 b 563 82 308 192 418 82 b 767 185 649 82 714 124 b 981 79 800 128 864 79 b 1276 451 1132 79 1276 200 b 678 992 1276 736 1022 992 b 63 382 328 992 63 717 b 682 -225 63 46 324 -225 z m 632 269 b 531 378 574 269 531 308 b 664 535 531 465 589 535 b 765 429 722 535 765 494 b 632 269 765 340 706 269 z "},"A":{"ha":1104,"x_min":0,"x_max":0,"o":"m 8 0 l 292 0 l 361 174 l 736 174 l 807 0 l 1096 0 l 682 979 l 422 979 z m 440 383 l 550 660 l 658 383 z "},"B":{"ha":993,"x_min":0,"x_max":0,"o":"m 86 0 l 588 0 b 956 268 819 0 956 101 l 956 271 b 763 508 956 403 881 469 b 913 725 849 546 913 613 l 913 728 b 850 885 913 794 889 846 b 585 972 793 942 707 972 l 86 972 z m 349 585 l 349 756 l 524 756 b 646 672 604 756 646 725 l 646 669 b 518 585 646 613 600 585 z m 349 217 l 349 396 l 554 396 b 686 308 644 396 686 361 l 686 306 b 557 217 686 249 639 217 z "},"C":{"ha":1014,"x_min":0,"x_max":0,"o":"m 554 -19 b 985 200 769 -19 893 74 l 782 344 b 563 226 724 274 664 226 b 331 486 426 226 331 340 l 331 489 b 563 746 331 631 426 746 b 775 632 656 746 719 701 l 978 789 b 565 992 892 908 764 992 b 53 486 271 992 53 769 l 53 483 b 554 -19 53 193 276 -19 z "},"D":{"ha":1063,"x_min":0,"x_max":0,"o":"m 86 0 l 456 0 b 1010 489 806 0 1010 208 l 1010 492 b 461 972 1010 772 808 972 l 86 972 z m 356 239 l 356 733 l 465 733 b 733 488 626 733 733 643 l 733 485 b 465 239 733 328 626 239 z "},"E":{"ha":926,"x_min":0,"x_max":0,"o":"m 86 0 l 875 0 l 875 229 l 353 229 l 353 383 l 819 383 l 819 596 l 353 596 l 353 743 l 868 743 l 868 972 l 86 972 z "},"F":{"ha":900,"x_min":0,"x_max":0,"o":"m 86 0 l 356 0 l 356 347 l 815 347 l 815 571 l 356 571 l 356 736 l 864 736 l 864 972 l 86 972 z "},"G":{"ha":1068,"x_min":0,"x_max":0,"o":"m 582 -19 b 1004 131 758 -19 901 46 l 1004 568 l 557 568 l 557 371 l 749 371 l 749 253 b 593 213 708 226 658 213 b 329 482 439 213 329 325 l 329 485 b 578 751 329 633 438 751 b 813 660 674 751 743 718 l 971 850 b 576 992 868 939 747 992 b 53 486 275 992 53 769 l 53 483 b 582 -19 53 189 279 -19 z "},"H":{"ha":1057,"x_min":0,"x_max":0,"o":"m 86 0 l 356 0 l 356 369 l 701 369 l 701 0 l 971 0 l 971 972 l 701 972 l 701 608 l 356 608 l 356 972 l 86 972 z "},"I":{"ha":454,"x_min":0,"x_max":0,"o":"m 92 0 l 363 0 l 363 972 l 92 972 z "},"J":{"ha":783,"x_min":0,"x_max":0,"o":"m 347 -17 b 614 82 458 -17 550 18 b 710 356 679 147 710 233 l 710 972 l 442 972 l 442 357 b 331 221 442 267 399 221 b 179 311 271 221 226 254 l 6 147 b 347 -17 74 54 178 -17 z "},"K":{"ha":1014,"x_min":0,"x_max":0,"o":"m 86 0 l 356 0 l 356 251 l 454 361 l 699 0 l 1022 0 l 642 554 l 1010 972 l 690 972 l 356 578 l 356 972 l 86 972 z "},"L":{"ha":856,"x_min":0,"x_max":0,"o":"m 86 0 l 826 0 l 826 236 l 356 236 l 356 972 l 86 972 z "},"M":{"ha":1206,"x_min":0,"x_max":0,"o":"m 86 0 l 350 0 l 350 556 l 597 178 l 603 178 l 851 558 l 851 0 l 1119 0 l 1119 972 l 835 972 l 603 596 l 371 972 l 86 972 z "},"N":{"ha":1090,"x_min":0,"x_max":0,"o":"m 86 0 l 353 0 l 353 533 l 768 0 l 1004 0 l 1004 972 l 738 972 l 738 458 l 338 972 l 86 972 z "},"O":{"ha":1154,"x_min":0,"x_max":0,"o":"m 575 -19 b 1100 486 875 -19 1100 207 l 1100 489 b 578 992 1100 768 878 992 b 53 486 278 992 53 765 l 53 483 b 575 -19 53 204 275 -19 z m 578 224 b 329 486 431 224 329 346 l 329 489 b 575 749 329 629 428 749 b 825 486 724 749 825 626 l 825 483 b 578 224 825 343 726 224 z "},"P":{"ha":935,"x_min":0,"x_max":0,"o":"m 86 0 l 356 0 l 356 278 l 489 278 b 907 628 731 278 907 399 l 907 631 b 503 972 907 846 749 972 l 86 972 z m 356 489 l 356 746 l 482 746 b 638 618 579 746 638 701 l 638 615 b 483 489 638 539 579 489 z "},"Q":{"ha":1154,"x_min":0,"x_max":0,"o":"m 978 -29 l 1114 122 l 1014 207 b 1100 486 1069 286 1100 383 l 1100 489 b 578 992 1100 768 878 992 b 53 486 278 992 53 765 l 53 483 b 575 -19 53 204 275 -19 b 871 67 686 -19 788 13 z m 578 219 b 329 483 429 219 329 343 l 329 486 b 575 749 329 626 428 749 b 826 483 725 749 826 625 l 826 481 b 810 386 826 447 821 415 l 678 506 l 542 353 l 676 238 b 578 219 647 226 614 219 z "},"R":{"ha":999,"x_min":0,"x_max":0,"o":"m 86 0 l 356 0 l 356 294 l 471 294 l 474 294 l 669 0 l 981 0 l 749 339 b 949 638 869 390 949 489 l 949 640 b 863 867 949 736 919 811 b 546 972 797 933 694 972 l 86 972 z m 356 506 l 356 739 l 532 739 b 678 624 622 739 678 700 l 678 621 b 533 506 678 550 625 506 z "},"S":{"ha":906,"x_min":0,"x_max":0,"o":"m 468 -17 b 861 300 704 -17 861 101 l 861 303 b 499 606 861 485 722 557 b 331 700 364 636 331 656 l 331 703 b 428 765 331 738 363 765 b 700 669 514 765 611 732 l 835 860 b 435 989 729 944 600 989 b 58 678 201 989 58 858 l 58 675 b 425 369 58 475 218 417 b 589 276 557 339 589 317 l 589 274 b 478 207 589 232 550 207 b 163 324 365 207 258 247 l 13 144 b 468 -17 132 38 296 -17 z "},"T":{"ha":917,"x_min":0,"x_max":0,"o":"m 324 0 l 593 0 l 593 736 l 885 736 l 885 972 l 32 972 l 32 736 l 324 736 z "},"U":{"ha":1053,"x_min":0,"x_max":0,"o":"m 524 -18 b 979 433 800 -18 979 119 l 979 972 l 706 972 l 706 425 b 526 225 706 289 635 225 b 347 432 418 225 347 292 l 347 972 l 74 972 l 74 426 b 524 -18 74 122 247 -18 z "},"V":{"ha":1056,"x_min":0,"x_max":0,"o":"m 403 -7 l 653 -7 l 1047 972 l 751 972 l 531 357 l 310 972 l 8 972 z "},"W":{"ha":1551,"x_min":0,"x_max":0,"o":"m 346 -7 l 581 -7 l 775 553 l 971 -7 l 1206 -7 l 1531 972 l 1251 972 l 1082 410 l 894 975 l 663 975 l 475 410 l 306 972 l 21 972 z "},"X":{"ha":1017,"x_min":0,"x_max":0,"o":"m 15 0 l 318 0 l 506 293 l 692 0 l 1001 0 l 668 497 l 988 972 l 685 972 l 511 699 l 339 972 l 29 972 l 349 494 z "},"Y":{"ha":1004,"x_min":0,"x_max":0,"o":"m 367 0 l 638 0 l 638 368 l 1007 972 l 706 972 l 504 618 l 304 972 l -3 972 l 367 364 z "},"Z":{"ha":969,"x_min":0,"x_max":0,"o":"m 56 0 l 915 0 l 915 228 l 428 228 l 915 776 l 915 972 l 72 972 l 72 744 l 543 744 l 56 196 z "},"[":{"ha":635,"x_min":0,"x_max":0,"o":"m 92 -181 l 572 -181 l 572 -1 l 328 -1 l 328 793 l 572 793 l 572 972 l 92 972 z "},"\\":{"ha":743,"x_min":0,"x_max":0,"o":"m 582 -178 l 796 -178 l 181 1108 l -33 1108 z "},"]":{"ha":635,"x_min":0,"x_max":0,"o":"m 63 -181 l 543 -181 l 543 972 l 63 972 l 63 793 l 307 793 l 307 -1 l 63 -1 z "},"^":{"ha":694,"x_min":0,"x_max":0,"o":"m 58 685 l 240 685 l 346 819 l 451 685 l 636 685 l 436 971 l 258 971 z "},"_":{"ha":833,"x_min":0,"x_max":0,"o":"m -3 -222 l 836 -222 l 836 -61 l -3 -61 z "},"‘":{"ha":394,"x_min":0,"x_max":0,"o":"m 56 476 l 329 476 l 329 747 l 224 747 b 363 878 219 822 269 867 l 340 979 b 56 697 167 974 56 903 z "},"a":{"ha":832,"x_min":0,"x_max":0,"o":"m 286 -17 b 507 78 385 -17 456 21 l 507 0 l 768 0 l 768 432 b 688 671 768 538 744 615 b 401 763 628 731 536 763 b 97 704 272 763 182 739 l 151 518 b 358 560 218 544 279 560 b 508 438 460 560 508 515 l 508 425 b 328 454 465 440 397 454 b 33 218 151 454 33 374 l 33 215 b 286 -17 33 65 143 -17 z m 381 149 b 288 231 326 149 288 179 l 288 233 b 408 326 288 289 332 326 b 511 307 447 326 485 318 l 511 272 b 381 149 511 197 457 149 z "},"b":{"ha":939,"x_min":0,"x_max":0,"o":"m 564 -17 b 896 376 742 -17 896 132 l 896 379 b 563 768 896 619 742 768 b 335 651 450 768 386 714 l 335 1014 l 71 1014 l 71 0 l 335 0 l 335 92 b 564 -17 383 35 450 -17 z m 482 204 b 329 375 397 204 329 275 l 329 378 b 482 547 329 476 397 547 b 636 378 568 547 636 476 l 636 375 b 482 204 636 274 568 204 z "},"c":{"ha":790,"x_min":0,"x_max":0,"o":"m 433 -18 b 768 154 599 -18 699 51 l 592 282 b 447 204 550 233 510 204 b 297 375 358 204 297 278 l 297 378 b 444 544 297 469 360 544 b 585 465 508 544 549 515 l 764 599 b 443 767 700 700 597 767 b 40 375 206 767 40 588 l 40 372 b 433 -18 40 160 207 -18 z "},"d":{"ha":939,"x_min":0,"x_max":0,"o":"m 375 -17 b 604 100 488 -17 553 38 l 604 0 l 868 0 l 868 1014 l 604 1014 l 604 660 b 374 768 554 717 488 768 b 43 375 196 768 43 619 l 43 372 b 375 -17 43 132 197 -17 z m 456 204 b 301 375 371 204 301 275 l 301 378 b 456 547 301 478 371 547 b 608 378 540 547 608 476 l 608 375 b 456 204 608 275 540 204 z "},"e":{"ha":840,"x_min":0,"x_max":0,"o":"m 443 -18 b 769 135 593 -18 697 43 l 624 256 b 457 179 569 203 519 179 b 294 303 375 179 315 221 l 797 303 b 799 357 799 321 799 340 b 419 768 799 578 679 768 b 40 375 197 768 40 594 l 40 372 b 443 -18 40 139 207 -18 z m 290 438 b 421 574 304 519 351 574 b 551 438 493 574 542 521 z "},"f":{"ha":561,"x_min":0,"x_max":0,"o":"m 118 0 l 381 0 l 381 540 l 549 540 l 549 743 l 376 743 l 376 761 b 451 832 376 810 403 832 b 550 817 489 832 519 826 l 550 1003 b 378 1024 508 1015 458 1024 b 182 958 289 1024 228 1004 b 118 764 138 914 118 850 l 118 747 l 31 747 l 31 540 l 118 540 z "},"g":{"ha":939,"x_min":0,"x_max":0,"o":"m 440 -225 b 771 -119 597 -225 703 -187 b 868 181 838 -53 868 43 l 868 751 l 604 751 l 604 663 b 368 768 547 722 481 768 b 43 418 194 768 43 635 l 43 415 b 376 67 43 200 192 67 b 608 179 486 67 556 118 l 608 150 b 411 -35 608 31 543 -35 b 149 36 310 -35 229 -8 l 64 -139 b 440 -225 172 -194 294 -225 z m 456 269 b 301 414 365 269 301 331 l 301 417 b 456 563 301 500 365 563 b 608 418 544 563 608 501 l 608 415 b 456 269 608 332 544 269 z "},"h":{"ha":881,"x_min":0,"x_max":0,"o":"m 71 0 l 335 0 l 335 407 b 446 533 335 489 382 533 b 551 407 508 533 551 489 l 551 0 l 815 0 l 815 492 b 560 768 815 663 719 768 b 335 649 453 768 383 711 l 335 1014 l 71 1014 z "},"i":{"ha":417,"x_min":0,"x_max":0,"o":"m 71 819 l 346 819 l 346 1014 l 71 1014 z m 76 0 l 340 0 l 340 751 l 76 751 z "},"j":{"ha":419,"x_min":0,"x_max":0,"o":"m 71 819 l 346 819 l 346 1014 l 71 1014 z m 72 -226 b 340 33 243 -226 340 -157 l 340 751 l 76 751 l 76 44 b -1 -43 76 -21 50 -43 b -36 -42 -12 -43 -25 -43 l -36 -217 b 72 -226 -4 -221 31 -226 z "},"k":{"ha":838,"x_min":0,"x_max":0,"o":"m 71 0 l 335 0 l 335 176 l 403 256 l 554 0 l 844 0 l 576 450 l 838 751 l 539 751 l 335 500 l 335 1014 l 71 1014 z "},"l":{"ha":417,"x_min":0,"x_max":0,"o":"m 76 0 l 340 0 l 340 1014 l 76 1014 z "},"m":{"ha":1349,"x_min":0,"x_max":0,"o":"m 71 0 l 335 0 l 335 408 b 442 533 335 490 379 533 b 544 408 504 533 544 490 l 544 0 l 808 0 l 808 408 b 917 533 808 490 854 533 b 1019 408 979 533 1019 490 l 1019 0 l 1283 0 l 1283 493 b 1026 768 1283 668 1186 768 b 775 646 917 768 840 721 b 558 768 735 724 658 768 b 335 649 453 768 383 711 l 335 751 l 71 751 z "},"n":{"ha":881,"x_min":0,"x_max":0,"o":"m 71 0 l 335 0 l 335 407 b 446 533 335 489 382 533 b 551 407 508 533 551 489 l 551 0 l 815 0 l 815 492 b 560 768 815 663 719 768 b 335 646 453 768 383 708 l 335 751 l 71 751 z "},"o":{"ha":911,"x_min":0,"x_max":0,"o":"m 454 -18 b 871 375 696 -18 871 161 l 871 378 b 457 768 871 592 697 768 b 40 375 215 768 40 589 l 40 372 b 454 -18 40 158 214 -18 z m 457 206 b 297 375 364 206 297 283 l 297 378 b 454 544 297 468 358 544 b 614 375 547 544 614 467 l 614 372 b 457 206 614 282 553 206 z "},"p":{"ha":939,"x_min":0,"x_max":0,"o":"m 71 -222 l 335 -222 l 335 92 b 564 -17 383 35 450 -17 b 896 376 742 -17 896 132 l 896 379 b 563 768 896 619 742 768 b 335 651 450 768 386 714 l 335 751 l 71 751 z m 482 204 b 329 375 397 204 329 275 l 329 378 b 482 547 329 476 397 547 b 636 378 568 547 636 476 l 636 375 b 482 204 636 274 568 204 z "},"q":{"ha":939,"x_min":0,"x_max":0,"o":"m 604 -222 l 868 -222 l 868 751 l 604 751 l 604 660 b 374 768 554 717 488 768 b 43 375 196 768 43 619 l 43 372 b 375 -17 43 132 197 -17 b 604 100 488 -17 553 38 z m 456 204 b 301 375 371 204 301 275 l 301 378 b 456 547 301 478 371 547 b 608 378 540 547 608 476 l 608 375 b 456 204 608 275 540 204 z "},"r":{"ha":594,"x_min":0,"x_max":0,"o":"m 71 0 l 335 0 l 335 233 b 550 486 335 407 413 486 l 572 486 l 572 764 b 335 600 447 769 378 703 l 335 751 l 71 751 z "},"s":{"ha":714,"x_min":0,"x_max":0,"o":"m 369 -17 b 676 235 553 -17 676 69 l 676 238 b 410 476 676 383 558 435 b 288 543 331 500 288 514 l 288 546 b 349 582 288 567 308 582 b 571 513 408 582 493 556 l 661 679 b 351 767 575 735 461 767 b 50 518 178 767 50 678 l 50 515 b 317 275 50 364 168 314 b 438 211 396 253 438 240 l 438 208 b 371 168 438 182 417 168 b 113 254 293 168 199 197 l 14 94 b 369 -17 118 19 243 -17 z "},"t":{"ha":599,"x_min":0,"x_max":0,"o":"m 369 -15 b 553 28 443 -15 506 1 l 553 235 b 453 210 521 219 488 210 b 381 285 404 210 381 232 l 381 539 l 556 539 l 556 751 l 381 751 l 381 942 l 117 942 l 117 751 l 28 751 l 28 539 l 117 539 l 117 233 b 369 -15 117 54 211 -15 z "},"u":{"ha":881,"x_min":0,"x_max":0,"o":"m 321 -17 b 546 103 428 -17 497 40 l 546 0 l 810 0 l 810 751 l 546 751 l 546 344 b 436 218 546 263 499 218 b 329 344 372 218 329 263 l 329 751 l 65 751 l 65 260 b 321 -17 65 89 161 -17 z "},"v":{"ha":868,"x_min":0,"x_max":0,"o":"m 314 -6 l 554 -6 l 854 751 l 581 751 l 436 313 l 292 751 l 14 751 z "},"w":{"ha":1196,"x_min":0,"x_max":0,"o":"m 246 -6 l 472 -6 l 597 385 l 719 -6 l 947 -6 l 1179 751 l 925 751 l 824 371 l 707 754 l 489 754 l 374 374 l 275 751 l 17 751 z "},"x":{"ha":818,"x_min":0,"x_max":0,"o":"m 11 0 l 289 0 l 407 193 l 524 0 l 807 0 l 554 381 l 801 751 l 522 751 l 411 567 l 300 751 l 15 751 l 264 379 z "},"y":{"ha":869,"x_min":0,"x_max":0,"o":"m 293 -226 b 579 18 443 -226 514 -157 l 854 751 l 583 751 l 442 299 l 292 751 l 15 751 l 310 14 b 249 -17 293 -10 275 -17 b 133 24 219 -17 175 -1 l 51 -161 b 293 -226 121 -200 200 -226 z "},"z":{"ha":782,"x_min":0,"x_max":0,"o":"m 44 0 l 742 0 l 742 210 l 393 210 l 742 578 l 742 751 l 57 751 l 57 542 l 392 542 l 44 174 z "},"{":{"ha":681,"x_min":0,"x_max":0,"o":"m 596 -196 l 636 -42 b 464 115 488 -8 464 29 b 468 213 464 139 468 183 b 313 399 468 314 414 371 b 468 585 414 426 468 483 b 464 682 468 614 464 658 b 636 839 464 768 488 806 l 596 993 b 229 725 318 960 229 878 b 233 622 229 704 233 646 b 69 486 233 517 178 486 l 47 486 l 47 311 l 69 311 b 233 175 178 311 233 281 b 229 72 233 151 229 93 b 596 -196 229 -81 318 -162 z "},"|":{"ha":493,"x_min":0,"x_max":0,"o":"m 146 -178 l 347 -178 l 347 1108 l 146 1108 z "},"}":{"ha":681,"x_min":0,"x_max":0,"o":"m 85 -196 b 451 72 363 -162 451 -81 b 447 175 451 93 447 151 b 611 311 447 281 503 311 l 633 311 l 633 486 l 611 486 b 447 622 503 486 447 517 b 451 725 447 646 451 704 b 85 993 451 878 363 960 l 44 839 b 217 682 193 806 217 768 b 213 585 217 658 213 614 b 368 399 213 483 267 426 b 213 213 267 371 213 314 b 217 115 213 183 217 139 b 44 -42 217 29 193 -8 z "},"~":{"ha":701,"x_min":0,"x_max":0,"o":"m 185 306 b 254 369 203 349 215 369 b 472 315 300 369 389 315 b 644 522 567 315 614 385 l 517 557 b 446 493 499 514 485 493 b 229 547 401 493 313 547 b 57 340 135 547 88 478 z "},"¡":{"ha":450,"x_min":0,"x_max":0,"o":"m 88 736 l 363 736 l 363 972 l 88 972 z m 75 0 l 375 0 l 375 118 l 294 656 l 156 656 l 75 118 z "},"¢":{"ha":799,"x_min":0,"x_max":0,"o":"m 304 128 l 281 -8 l 440 -8 l 460 104 b 771 269 603 108 704 172 l 611 386 b 479 307 575 343 531 314 l 543 657 b 608 601 569 643 590 624 l 769 725 b 594 860 732 781 674 831 l 615 981 l 456 981 l 439 883 b 44 493 203 878 44 710 l 44 490 b 304 128 44 322 150 181 z m 414 682 l 351 331 b 274 493 301 361 274 419 l 274 496 b 414 682 274 588 329 669 z "},"£":{"ha":888,"x_min":0,"x_max":0,"o":"m 61 0 l 840 0 l 840 213 l 433 213 l 433 365 l 733 365 l 733 554 l 433 554 l 433 625 b 544 749 433 701 475 749 b 686 669 601 749 644 719 l 850 849 b 526 989 778 929 678 989 b 261 893 411 989 324 956 b 165 625 199 831 165 736 l 165 554 l 61 554 l 61 365 l 165 365 l 165 200 l 61 160 z "},"⁄":{"ha":696,"x_min":0,"x_max":0,"o":"m -101 -136 l 119 -136 l 765 1053 l 546 1053 z "},"¥":{"ha":983,"x_min":0,"x_max":0,"o":"m 358 0 l 625 0 l 625 129 l 881 129 l 881 296 l 625 296 l 625 365 l 881 365 l 881 532 l 688 532 l 978 972 l 678 972 l 494 653 l 311 972 l 6 972 l 294 532 l 103 532 l 103 365 l 358 365 l 358 296 l 103 296 l 103 129 l 358 129 z "},"ƒ":{"ha":768,"x_min":0,"x_max":0,"o":"m 154 -14 b 453 239 335 -14 421 54 l 492 457 l 686 457 l 686 657 l 528 657 l 535 699 b 643 786 546 761 578 786 b 736 774 669 786 703 782 l 736 968 b 583 986 697 979 642 986 b 281 747 404 986 310 910 l 263 657 l 143 657 l 143 457 l 228 457 l 196 274 b 100 183 183 207 160 183 b 35 192 81 183 61 186 l 35 0 b 154 -14 78 -10 113 -14 z "},"§":{"ha":869,"x_min":0,"x_max":0,"o":"m 429 -18 b 750 207 644 -18 750 83 l 750 210 b 685 346 750 267 725 315 b 811 499 758 372 811 418 l 811 501 b 494 704 811 621 668 665 b 360 767 394 725 360 742 l 360 769 b 435 811 360 796 382 811 b 663 729 510 811 593 779 l 769 881 b 440 990 699 943 578 990 b 119 767 226 990 119 890 l 119 764 b 185 626 119 707 143 658 b 58 474 111 600 58 556 l 58 471 b 375 268 58 353 201 307 b 510 206 469 249 510 232 l 510 203 b 435 161 510 178 489 161 b 207 243 360 161 276 193 l 100 92 b 429 -18 171 29 292 -18 z m 538 413 b 400 438 511 413 467 421 b 260 508 314 458 260 478 l 260 511 b 331 560 260 543 289 560 b 468 535 358 560 403 551 b 608 464 556 514 608 494 l 608 461 b 538 413 608 429 579 413 z "},"¤":{"ha":947,"x_min":0,"x_max":0,"o":"m 585 -19 b 924 146 738 -19 844 43 l 757 303 b 593 211 711 247 664 211 b 433 314 517 211 464 250 l 653 314 l 653 454 l 406 454 b 404 486 404 465 404 475 l 404 489 b 406 524 404 500 404 513 l 653 524 l 653 664 l 436 664 b 588 761 465 725 518 761 b 749 675 660 761 708 726 l 919 835 b 586 992 846 929 738 992 b 168 668 364 992 217 850 l 51 668 l 51 524 l 146 524 b 144 486 144 511 144 499 l 144 483 b 146 454 144 474 144 464 l 51 454 l 51 310 l 164 310 b 585 -19 211 115 360 -19 z "},"'":{"ha":394,"x_min":0,"x_max":0,"o":"m 47 474 l 190 474 l 367 965 l 367 972 l 78 972 z "},"“":{"ha":760,"x_min":0,"x_max":0,"o":"m 424 476 l 694 476 l 694 747 l 592 747 b 728 878 589 822 635 867 l 706 979 b 424 697 533 974 424 899 z m 56 476 l 326 476 l 326 747 l 224 747 b 358 878 219 822 265 867 l 338 979 b 56 697 164 974 56 899 z "},"«":{"ha":876,"x_min":0,"x_max":0,"o":"m 646 42 l 835 136 l 654 372 l 835 610 l 646 703 l 401 378 l 401 367 z m 264 42 l 454 136 l 274 372 l 454 610 l 264 703 l 42 406 l 42 339 z "},"‹":{"ha":496,"x_min":0,"x_max":0,"o":"m 264 42 l 454 136 l 274 372 l 454 610 l 264 703 l 42 406 l 42 339 z "},"›":{"ha":496,"x_min":0,"x_max":0,"o":"m 232 42 l 454 339 l 454 406 l 232 703 l 42 608 l 222 372 l 42 135 z "},"ﬁ":{"ha":978,"x_min":0,"x_max":0,"o":"m 632 819 l 907 819 l 907 1014 l 632 1014 z m 118 747 l 31 747 l 31 540 l 118 540 l 118 0 l 381 0 l 381 540 l 549 540 l 549 743 l 376 743 l 376 761 b 451 832 376 810 403 832 b 550 817 489 832 519 826 l 550 1003 b 378 1024 508 1015 458 1024 b 182 958 289 1024 228 1004 b 118 764 138 914 118 850 z m 638 0 l 901 0 l 901 751 l 638 751 z "},"ﬂ":{"ha":978,"x_min":0,"x_max":0,"o":"m 118 0 l 381 0 l 381 540 l 549 540 l 549 743 l 376 743 l 376 761 b 451 832 376 810 403 832 b 550 817 489 832 519 826 l 550 1003 b 378 1024 508 1015 458 1024 b 182 958 289 1024 228 1004 b 118 764 138 914 118 850 l 118 747 l 31 747 l 31 540 l 118 540 z m 638 0 l 901 0 l 901 1014 l 638 1014 z "},"–":{"ha":733,"x_min":0,"x_max":0,"o":"m 56 321 l 678 321 l 678 547 l 56 547 z "},"†":{"ha":569,"x_min":0,"x_max":0,"o":"m 215 310 l 354 310 l 340 685 l 514 667 l 514 811 l 342 793 l 363 972 l 207 972 l 228 793 l 56 811 l 56 667 l 229 685 z "},"‡":{"ha":597,"x_min":0,"x_max":0,"o":"m 221 0 l 376 0 l 356 179 l 528 161 l 528 306 l 353 288 l 371 486 l 353 685 l 528 667 l 528 811 l 356 793 l 376 972 l 221 972 l 242 793 l 69 811 l 69 667 l 244 685 l 226 486 l 244 288 l 69 306 l 69 161 l 242 179 z "},"·":{"ha":394,"x_min":0,"x_max":0,"o":"m 60 299 l 335 299 l 335 569 l 60 569 z "},"¶":{"ha":828,"x_min":0,"x_max":0,"o":"m 471 0 l 742 0 l 742 972 l 438 972 b 31 638 192 972 31 853 l 31 635 b 442 306 31 421 203 306 l 471 306 z "},"•":{"ha":694,"x_min":0,"x_max":0,"o":"m 347 254 b 582 488 476 254 582 358 l 582 490 b 347 724 582 619 476 724 b 113 490 218 724 113 619 l 113 488 b 347 254 113 358 218 254 z "},"‚":{"ha":394,"x_min":0,"x_max":0,"o":"m 49 -232 b 335 50 222 -226 335 -156 l 335 271 l 60 271 l 60 0 l 167 0 b 28 -131 169 -75 121 -119 z "},"„":{"ha":758,"x_min":0,"x_max":0,"o":"m 418 -232 b 700 50 592 -226 700 -153 l 700 271 l 429 271 l 429 0 l 532 0 b 397 -131 536 -75 490 -119 z m 49 -232 b 331 50 222 -226 331 -153 l 331 271 l 60 271 l 60 0 l 163 0 b 28 -131 167 -75 121 -119 z "},"”":{"ha":760,"x_min":0,"x_max":0,"o":"m 424 469 b 704 751 596 475 704 549 l 704 972 l 433 972 l 433 701 l 538 701 b 401 571 540 626 494 581 z m 54 469 b 336 751 228 475 336 549 l 336 972 l 65 972 l 65 701 l 168 701 b 32 571 171 626 125 581 z "},"»":{"ha":876,"x_min":0,"x_max":0,"o":"m 613 42 l 835 339 l 835 406 l 613 703 l 424 608 l 604 372 l 424 135 z m 232 42 l 475 367 l 475 378 l 232 703 l 42 608 l 222 372 l 42 135 z "},"…":{"ha":1167,"x_min":0,"x_max":0,"o":"m 838 0 l 1107 0 l 1107 267 l 838 267 z m 449 0 l 718 0 l 718 267 l 449 267 z m 60 0 l 329 0 l 329 267 l 60 267 z "},"‰":{"ha":1799,"x_min":0,"x_max":0,"o":"m 299 463 b 550 724 449 463 550 581 l 550 726 b 300 986 550 868 451 986 b 49 725 147 986 49 868 l 49 722 b 299 463 49 579 149 463 z m 156 0 l 343 0 l 1093 972 l 906 972 z m 1499 -14 b 1750 247 1649 -14 1750 106 l 1750 250 b 1500 510 1750 393 1651 510 b 1249 249 1347 510 1249 392 l 1249 246 b 1499 -14 1249 104 1349 -14 z m 949 -14 b 1200 247 1099 -14 1200 106 l 1200 250 b 950 510 1200 393 1101 510 b 699 249 797 510 699 392 l 699 246 b 949 -14 699 104 799 -14 z m 300 615 b 218 724 254 615 218 661 l 218 726 b 299 833 218 788 250 833 b 381 725 346 833 381 786 l 381 722 b 300 615 381 661 347 615 z m 1500 139 b 1418 247 1454 139 1418 186 l 1418 250 b 1499 357 1418 313 1449 357 b 1581 249 1546 357 1581 311 l 1581 246 b 1500 139 1581 185 1547 139 z m 950 139 b 868 247 904 139 868 186 l 868 250 b 949 357 868 313 899 357 b 1031 249 996 357 1031 311 l 1031 246 b 950 139 1031 185 997 139 z "},"¿":{"ha":750,"x_min":0,"x_max":0,"o":"m 268 736 l 543 736 l 543 972 l 268 972 z m 376 -15 b 738 131 536 -15 653 46 l 597 314 b 396 222 532 256 460 222 b 290 299 329 222 290 251 l 290 300 b 508 411 290 360 347 397 l 521 424 l 485 656 l 317 656 l 301 567 b 31 279 146 529 31 454 l 31 276 b 376 -15 31 96 174 -15 z "},"`":{"ha":694,"x_min":0,"x_max":0,"o":"m 326 815 l 513 815 l 368 1072 l 122 993 z "},"´":{"ha":694,"x_min":0,"x_max":0,"o":"m 182 815 l 368 815 l 572 993 l 326 1072 z "},"ˆ":{"ha":694,"x_min":0,"x_max":0,"o":"m 63 815 l 229 815 l 346 900 l 463 815 l 632 815 l 454 1044 l 240 1044 z "},"˜":{"ha":694,"x_min":0,"x_max":0,"o":"m 181 806 b 251 869 199 849 213 869 b 468 815 296 869 385 815 b 640 1022 564 815 611 885 l 514 1057 b 443 993 496 1014 482 993 b 226 1047 399 993 310 1047 b 54 840 131 1047 83 978 z "},"¯":{"ha":694,"x_min":0,"x_max":0,"o":"m 86 822 l 608 822 l 608 983 l 86 983 z "},"˘":{"ha":694,"x_min":0,"x_max":0,"o":"m 347 813 b 621 1044 501 813 608 897 l 467 1044 b 347 964 450 996 417 964 b 228 1044 278 964 244 996 l 74 1044 b 347 813 86 897 193 813 z "},"˙":{"ha":694,"x_min":0,"x_max":0,"o":"m 229 815 l 465 815 l 465 1014 l 229 1014 z "},"¨":{"ha":694,"x_min":0,"x_max":0,"o":"m 385 815 l 614 815 l 614 1014 l 385 1014 z m 81 815 l 310 815 l 310 1014 l 81 1014 z "},"˚":{"ha":694,"x_min":0,"x_max":0,"o":"m 347 821 b 532 997 444 821 532 903 l 532 1000 b 347 1175 532 1096 444 1175 b 163 1000 250 1175 163 1096 l 163 997 b 347 821 163 903 250 821 z m 347 906 b 254 997 296 906 254 947 l 254 1000 b 347 1090 254 1049 296 1090 b 440 1000 399 1090 440 1049 l 440 997 b 347 906 440 947 399 906 z "},"¸":{"ha":694,"x_min":0,"x_max":0,"o":"m 361 -240 l 453 21 l 279 21 l 151 -151 z "},"˝":{"ha":694,"x_min":0,"x_max":0,"o":"m 42 817 l 214 817 l 381 967 l 299 817 l 469 817 l 668 993 l 438 1072 l 396 997 l 179 1072 z "},"˛":{"ha":694,"x_min":0,"x_max":0,"o":"m 529 -228 l 529 -114 b 408 -33 444 -112 408 -82 b 415 14 408 -17 411 -1 l 246 14 b 219 -81 228 -18 219 -51 b 529 -228 219 -190 328 -249 z "},"ˇ":{"ha":694,"x_min":0,"x_max":0,"o":"m 240 815 l 454 815 l 632 1044 l 465 1044 l 349 960 l 232 1044 l 63 1044 z "},"—":{"ha":1247,"x_min":0,"x_max":0,"o":"m 56 321 l 1192 321 l 1192 547 l 56 547 z "},"Æ":{"ha":1476,"x_min":0,"x_max":0,"o":"m -7 0 l 265 0 l 356 174 l 669 174 l 669 0 l 1424 0 l 1424 229 l 932 229 l 932 383 l 1368 383 l 1368 596 l 932 596 l 932 743 l 1417 743 l 1417 972 l 507 972 z m 464 383 l 653 751 l 669 751 l 669 383 z "},"ª":{"ha":542,"x_min":0,"x_max":0,"o":"m 200 551 b 321 604 254 551 293 572 l 321 560 l 465 560 l 465 796 b 421 928 465 854 453 897 b 263 979 388 961 338 979 b 96 947 192 979 143 967 l 125 844 b 239 868 163 858 196 868 b 322 800 296 868 322 843 l 322 794 b 224 810 299 803 261 810 b 61 681 126 810 61 767 l 61 678 b 200 551 61 596 121 551 z m 57 375 l 472 375 l 472 482 l 57 482 z m 251 643 b 201 688 222 643 201 660 l 201 690 b 267 740 201 719 226 740 b 324 729 289 740 308 735 l 324 711 b 251 643 324 669 293 643 z "},"Ł":{"ha":915,"x_min":0,"x_max":0,"o":"m 149 0 l 886 0 l 886 236 l 417 236 l 417 419 l 663 492 l 663 733 l 417 661 l 417 972 l 149 972 l 149 581 l 43 550 l 43 310 l 149 340 z "},"Ø":{"ha":1154,"x_min":0,"x_max":0,"o":"m 575 -19 b 1100 486 875 -19 1100 207 l 1100 489 b 974 822 1100 618 1053 735 l 1111 979 l 907 979 l 853 918 b 578 992 775 965 681 992 b 53 486 278 992 53 765 l 53 483 b 181 149 53 354 100 238 l 42 -7 l 246 -7 l 300 54 b 575 -19 379 7 474 -19 z m 358 351 b 325 486 336 392 325 438 l 325 489 b 575 754 325 632 425 754 b 688 728 618 754 656 744 z m 578 218 b 465 244 536 218 499 228 l 796 621 b 829 486 818 581 829 535 l 829 483 b 578 218 829 340 729 218 z "},"Œ":{"ha":1497,"x_min":0,"x_max":0,"o":"m 601 0 l 1444 0 l 1444 229 l 953 229 l 953 383 l 1389 383 l 1389 596 l 953 596 l 953 743 l 1438 743 l 1438 972 l 607 972 b 53 483 257 972 53 765 l 53 481 b 601 0 53 200 256 0 z m 594 235 b 329 485 436 235 329 331 l 329 488 b 594 738 329 644 436 738 l 686 738 l 686 235 z "},"º":{"ha":542,"x_min":0,"x_max":0,"o":"m 269 549 b 496 764 400 549 496 644 l 496 767 b 272 979 496 885 401 979 b 46 764 142 979 46 883 l 46 761 b 269 549 46 643 140 549 z m 71 375 l 471 375 l 471 482 l 71 482 z m 272 672 b 188 764 222 672 188 713 l 188 767 b 269 857 188 817 219 857 b 354 764 319 857 354 815 l 354 761 b 272 672 354 711 322 672 z "},"æ":{"ha":1306,"x_min":0,"x_max":0,"o":"m 313 -17 b 614 94 424 -17 526 28 b 908 -18 685 24 788 -18 b 1233 135 1058 -18 1161 43 l 1088 256 b 921 179 1033 203 985 179 b 758 303 840 179 781 221 l 1261 303 b 1264 357 1263 321 1264 340 b 890 768 1264 578 1142 768 b 656 678 794 768 715 735 b 401 763 601 732 524 763 b 97 704 272 763 182 739 l 151 518 b 358 560 218 544 279 560 b 508 438 460 560 508 515 l 508 425 b 328 454 465 440 397 454 b 33 218 151 454 33 374 l 33 215 b 313 -17 33 61 158 -17 z m 756 438 b 885 574 768 519 815 574 b 1017 438 957 574 1007 521 z m 385 151 b 288 231 329 151 288 181 l 288 233 b 408 326 288 289 332 326 b 510 307 446 326 483 318 b 536 213 514 274 524 242 b 385 151 486 172 435 151 z "},"ı":{"ha":417,"x_min":0,"x_max":0,"o":"m 76 0 l 340 0 l 340 751 l 76 751 z "},"ł":{"ha":557,"x_min":0,"x_max":0,"o":"m 147 0 l 410 0 l 410 440 l 524 474 l 524 711 l 410 678 l 410 1014 l 147 1014 l 147 603 l 33 569 l 33 333 l 147 367 z "},"ø":{"ha":911,"x_min":0,"x_max":0,"o":"m 454 -18 b 871 375 696 -18 871 161 l 871 378 b 776 631 871 475 836 563 b 892 758 804 663 892 758 l 707 758 l 667 715 b 457 768 607 749 535 768 b 40 375 215 768 40 589 l 40 372 b 135 121 40 276 75 189 l 19 -7 l 204 -7 l 243 35 b 454 -18 304 1 375 -18 z m 300 303 b 286 375 292 325 286 350 l 286 378 b 454 556 286 474 353 556 b 517 543 476 556 499 551 z m 457 194 b 396 206 435 194 414 199 l 611 447 b 625 375 619 425 625 400 l 625 372 b 457 194 625 276 558 194 z "},"œ":{"ha":1407,"x_min":0,"x_max":0,"o":"m 444 -18 b 725 94 558 -18 657 25 b 1014 -18 793 24 893 -18 b 1336 135 1160 -18 1263 43 l 1190 256 b 1022 179 1136 203 1086 179 b 861 303 942 179 882 221 l 1363 303 b 1365 357 1364 321 1365 340 b 990 768 1365 578 1244 768 b 728 656 883 768 792 726 b 450 768 661 725 564 768 b 40 375 218 768 40 589 l 40 372 b 444 -18 40 158 217 -18 z m 857 438 b 988 574 871 519 917 574 b 1118 438 1060 574 1108 521 z m 453 206 b 297 375 363 206 297 283 l 297 378 b 450 544 297 467 357 544 b 607 375 542 544 607 467 l 607 372 b 453 206 607 282 547 206 z "},"ß":{"ha":882,"x_min":0,"x_max":0,"o":"m 426 -4 b 844 267 669 -18 844 83 l 844 269 b 651 506 844 404 744 475 b 796 733 731 546 796 619 l 796 736 b 449 1026 796 897 665 1026 b 71 665 203 1026 71 882 l 71 0 l 333 0 l 333 671 b 444 806 333 758 379 806 b 540 704 500 806 540 767 l 540 701 b 426 553 540 632 488 583 l 426 413 b 583 300 519 404 583 367 l 583 297 b 426 185 583 231 525 190 z "},"Ð":{"ha":1132,"x_min":0,"x_max":0,"o":"m 154 0 l 524 0 b 1078 489 874 0 1078 208 l 1078 492 b 529 972 1078 772 876 972 l 154 972 l 154 596 l 43 596 l 43 383 l 154 383 z m 415 232 l 415 383 l 581 383 l 581 596 l 415 596 l 415 740 l 533 740 b 801 488 699 740 801 646 l 801 485 b 533 232 801 325 699 232 z "},"ð":{"ha":911,"x_min":0,"x_max":0,"o":"m 446 -18 b 854 360 696 -18 854 150 l 854 363 b 719 726 854 496 817 586 l 631 851 l 774 900 l 685 1024 l 547 972 l 518 1014 l 238 1014 l 326 892 l 164 836 l 254 713 l 414 774 l 525 625 b 375 663 486 649 435 663 b 44 349 174 663 44 524 l 44 346 b 446 -18 44 142 210 -18 z m 451 203 b 299 346 361 203 299 268 l 299 349 b 449 489 299 426 356 489 b 600 347 539 489 600 424 l 600 344 b 451 203 600 267 544 203 z "},"Š":{"ha":906,"x_min":0,"x_max":0,"o":"m 468 -17 b 861 300 704 -17 861 101 l 861 303 b 499 606 861 485 722 557 b 331 700 364 636 331 656 l 331 703 b 428 765 331 738 363 765 b 700 669 514 765 611 732 l 835 860 b 435 989 729 944 600 989 b 58 678 201 989 58 858 l 58 675 b 425 369 58 475 218 417 b 589 276 557 339 589 317 l 589 274 b 478 207 589 232 550 207 b 163 324 365 207 258 247 l 13 144 b 468 -17 132 38 296 -17 z m 338 1038 l 551 1038 l 729 1267 l 563 1267 l 446 1182 l 329 1267 l 160 1267 z "},"š":{"ha":714,"x_min":0,"x_max":0,"o":"m 369 -17 b 676 235 553 -17 676 69 l 676 238 b 410 476 676 383 558 435 b 288 543 331 500 288 514 l 288 546 b 349 582 288 567 308 582 b 571 513 408 582 493 556 l 661 679 b 351 767 575 735 461 767 b 50 518 178 767 50 678 l 50 515 b 317 275 50 364 168 314 b 438 211 396 253 438 240 l 438 208 b 371 168 438 182 417 168 b 113 254 293 168 199 197 l 14 94 b 369 -17 118 19 243 -17 z m 253 815 l 467 815 l 644 1044 l 478 1044 l 361 960 l 244 1044 l 75 1044 z "},"Ý":{"ha":1004,"x_min":0,"x_max":0,"o":"m 367 0 l 638 0 l 638 368 l 1007 972 l 706 972 l 504 618 l 304 972 l -3 972 l 367 364 z m 390 1035 l 576 1035 l 781 1213 l 535 1292 z "},"ý":{"ha":869,"x_min":0,"x_max":0,"o":"m 293 -226 b 579 18 443 -226 514 -157 l 854 751 l 583 751 l 442 299 l 292 751 l 15 751 l 310 14 b 249 -17 293 -10 275 -17 b 133 24 219 -17 175 -1 l 51 -161 b 293 -226 121 -200 200 -226 z m 314 815 l 500 815 l 704 993 l 458 1072 z "},"Þ":{"ha":947,"x_min":0,"x_max":0,"o":"m 86 0 l 356 0 l 356 146 l 489 146 b 907 493 731 146 907 263 l 907 496 b 503 833 907 711 749 833 l 356 833 l 356 972 l 86 972 z m 356 361 l 356 617 l 482 617 b 638 490 579 617 638 574 l 638 488 b 483 361 638 411 579 361 z "},"þ":{"ha":939,"x_min":0,"x_max":0,"o":"m 71 -222 l 335 -222 l 335 92 b 564 -17 383 35 450 -17 b 896 376 742 -17 896 132 l 896 379 b 563 768 896 619 742 768 b 335 651 450 768 386 714 l 335 1014 l 71 1014 z m 482 204 b 329 375 397 204 329 275 l 329 378 b 482 547 329 476 397 547 b 636 378 568 547 636 476 l 636 375 b 482 204 636 274 568 204 z "},"Ž":{"ha":969,"x_min":0,"x_max":0,"o":"m 56 0 l 915 0 l 915 228 l 428 228 l 915 776 l 915 972 l 72 972 l 72 744 l 543 744 l 56 196 z m 385 1038 l 599 1038 l 776 1267 l 610 1267 l 493 1182 l 376 1267 l 207 1267 z "},"ž":{"ha":782,"x_min":0,"x_max":0,"o":"m 44 0 l 742 0 l 742 210 l 393 210 l 742 578 l 742 751 l 57 751 l 57 542 l 392 542 l 44 174 z m 288 815 l 501 815 l 679 1044 l 513 1044 l 396 960 l 279 1044 l 110 1044 z "},"Ä":{"ha":1104,"x_min":0,"x_max":0,"o":"m 8 0 l 292 0 l 361 174 l 736 174 l 807 0 l 1096 0 l 682 979 l 422 979 z m 440 383 l 550 660 l 658 383 z m 590 1038 l 819 1038 l 819 1236 l 590 1236 z m 286 1038 l 515 1038 l 515 1236 l 286 1236 z "},"Å":{"ha":1104,"x_min":0,"x_max":0,"o":"m 8 0 l 292 0 l 361 174 l 736 174 l 807 0 l 1096 0 l 693 954 b 736 1061 719 983 736 1021 l 736 1064 b 553 1239 736 1160 650 1239 b 368 1064 454 1239 368 1160 l 368 1061 b 411 954 368 1021 385 983 z m 553 969 b 460 1061 501 969 460 1011 l 460 1064 b 553 1154 460 1113 501 1154 b 644 1064 603 1154 644 1113 l 644 1061 b 553 969 644 1011 603 969 z m 440 383 l 550 660 l 658 383 z "},"Ç":{"ha":1014,"x_min":0,"x_max":0,"o":"m 529 -240 l 607 -17 b 985 200 790 -1 901 85 l 782 344 b 563 226 724 274 664 226 b 331 486 426 226 331 340 l 331 489 b 563 746 331 631 426 746 b 775 632 656 746 719 701 l 978 789 b 565 992 892 908 764 992 b 53 486 271 992 53 769 l 53 483 b 428 -4 53 239 211 50 l 319 -151 z "},"É":{"ha":926,"x_min":0,"x_max":0,"o":"m 86 0 l 875 0 l 875 229 l 353 229 l 353 383 l 819 383 l 819 596 l 353 596 l 353 743 l 868 743 l 868 972 l 86 972 z m 350 1038 l 536 1038 l 740 1215 l 494 1294 z "},"Ñ":{"ha":1090,"x_min":0,"x_max":0,"o":"m 86 0 l 353 0 l 353 533 l 768 0 l 1004 0 l 1004 972 l 738 972 l 738 458 l 338 972 l 86 972 z m 379 1028 b 450 1092 397 1071 411 1092 b 667 1038 494 1092 583 1038 b 839 1244 763 1038 810 1107 l 713 1279 b 642 1215 694 1236 681 1215 b 425 1269 597 1215 508 1269 b 253 1063 329 1269 282 1200 z "},"Ö":{"ha":1154,"x_min":0,"x_max":0,"o":"m 575 -19 b 1100 486 875 -19 1100 207 l 1100 489 b 578 992 1100 768 878 992 b 53 486 278 992 53 765 l 53 483 b 575 -19 53 204 275 -19 z m 578 224 b 329 486 431 224 329 346 l 329 489 b 575 749 329 629 428 749 b 825 486 724 749 825 626 l 825 483 b 578 224 825 343 726 224 z m 615 1038 l 844 1038 l 844 1236 l 615 1236 z m 311 1038 l 540 1038 l 540 1236 l 311 1236 z "},"Ü":{"ha":1053,"x_min":0,"x_max":0,"o":"m 524 -18 b 979 433 800 -18 979 119 l 979 972 l 706 972 l 706 425 b 526 225 706 289 635 225 b 347 432 418 225 347 292 l 347 972 l 74 972 l 74 426 b 524 -18 74 122 247 -18 z m 564 1038 l 793 1038 l 793 1236 l 564 1236 z m 260 1038 l 489 1038 l 489 1236 l 260 1236 z "},"á":{"ha":832,"x_min":0,"x_max":0,"o":"m 286 -17 b 507 78 385 -17 456 21 l 507 0 l 768 0 l 768 432 b 688 671 768 538 744 615 b 401 763 628 731 536 763 b 97 704 272 763 182 739 l 151 518 b 358 560 218 544 279 560 b 508 438 460 560 508 515 l 508 425 b 328 454 465 440 397 454 b 33 218 151 454 33 374 l 33 215 b 286 -17 33 65 143 -17 z m 381 149 b 288 231 326 149 288 179 l 288 233 b 408 326 288 289 332 326 b 511 307 447 326 485 318 l 511 272 b 381 149 511 197 457 149 z m 300 818 l 486 818 l 690 996 l 444 1075 z "},"à":{"ha":832,"x_min":0,"x_max":0,"o":"m 286 -17 b 507 78 385 -17 456 21 l 507 0 l 768 0 l 768 432 b 688 671 768 538 744 615 b 401 763 628 731 536 763 b 97 704 272 763 182 739 l 151 518 b 358 560 218 544 279 560 b 508 438 460 560 508 515 l 508 425 b 328 454 465 440 397 454 b 33 218 151 454 33 374 l 33 215 b 286 -17 33 65 143 -17 z m 381 149 b 288 231 326 149 288 179 l 288 233 b 408 326 288 289 332 326 b 511 307 447 326 485 318 l 511 272 b 381 149 511 197 457 149 z m 350 818 l 536 818 l 392 1075 l 146 996 z "},"â":{"ha":832,"x_min":0,"x_max":0,"o":"m 286 -17 b 507 78 385 -17 456 21 l 507 0 l 768 0 l 768 432 b 688 671 768 538 744 615 b 401 763 628 731 536 763 b 97 704 272 763 182 739 l 151 518 b 358 560 218 544 279 560 b 508 438 460 560 508 515 l 508 425 b 328 454 465 440 397 454 b 33 218 151 454 33 374 l 33 215 b 286 -17 33 65 143 -17 z m 381 149 b 288 231 326 149 288 179 l 288 233 b 408 326 288 289 332 326 b 511 307 447 326 485 318 l 511 272 b 381 149 511 197 457 149 z m 128 815 l 294 815 l 411 900 l 528 815 l 697 815 l 519 1044 l 306 1044 z "},"ä":{"ha":832,"x_min":0,"x_max":0,"o":"m 286 -17 b 507 78 385 -17 456 21 l 507 0 l 768 0 l 768 432 b 688 671 768 538 744 615 b 401 763 628 731 536 763 b 97 704 272 763 182 739 l 151 518 b 358 560 218 544 279 560 b 508 438 460 560 508 515 l 508 425 b 328 454 465 440 397 454 b 33 218 151 454 33 374 l 33 215 b 286 -17 33 65 143 -17 z m 381 149 b 288 231 326 149 288 179 l 288 233 b 408 326 288 289 332 326 b 511 307 447 326 485 318 l 511 272 b 381 149 511 197 457 149 z m 450 818 l 679 818 l 679 1017 l 450 1017 z m 146 818 l 375 818 l 375 1017 l 146 1017 z "},"ã":{"ha":832,"x_min":0,"x_max":0,"o":"m 286 -17 b 507 78 385 -17 456 21 l 507 0 l 768 0 l 768 432 b 688 671 768 538 744 615 b 401 763 628 731 536 763 b 97 704 272 763 182 739 l 151 518 b 358 560 218 544 279 560 b 508 438 460 560 508 515 l 508 425 b 328 454 465 440 397 454 b 33 218 151 454 33 374 l 33 215 b 286 -17 33 65 143 -17 z m 381 149 b 288 231 326 149 288 179 l 288 233 b 408 326 288 289 332 326 b 511 307 447 326 485 318 l 511 272 b 381 149 511 197 457 149 z m 249 806 b 319 869 267 849 281 869 b 536 815 364 869 453 815 b 708 1022 632 815 679 885 l 582 1057 b 511 993 564 1014 550 993 b 294 1047 467 993 378 1047 b 122 840 199 1047 151 978 z "},"å":{"ha":832,"x_min":0,"x_max":0,"o":"m 286 -17 b 507 78 385 -17 456 21 l 507 0 l 768 0 l 768 432 b 688 671 768 538 744 615 b 401 763 628 731 536 763 b 97 704 272 763 182 739 l 151 518 b 358 560 218 544 279 560 b 508 438 460 560 508 515 l 508 425 b 328 454 465 440 397 454 b 33 218 151 454 33 374 l 33 215 b 286 -17 33 65 143 -17 z m 381 149 b 288 231 326 149 288 179 l 288 233 b 408 326 288 289 332 326 b 511 307 447 326 485 318 l 511 272 b 381 149 511 197 457 149 z m 413 821 b 597 997 510 821 597 903 l 597 1000 b 413 1175 597 1096 510 1175 b 228 1000 315 1175 228 1096 l 228 997 b 413 821 228 903 315 821 z m 413 906 b 319 997 361 906 319 947 l 319 1000 b 413 1090 319 1049 361 1090 b 506 1000 464 1090 506 1049 l 506 997 b 413 906 506 947 464 906 z "},"ç":{"ha":790,"x_min":0,"x_max":0,"o":"m 406 -240 l 485 -15 b 768 154 621 -3 706 63 l 592 282 b 447 204 550 233 510 204 b 297 375 358 204 297 278 l 297 378 b 444 544 297 469 360 544 b 585 465 508 544 549 515 l 764 599 b 443 767 700 700 597 767 b 40 375 206 767 40 588 l 40 372 b 308 1 40 200 149 53 l 196 -151 z "},"é":{"ha":840,"x_min":0,"x_max":0,"o":"m 443 -18 b 769 135 593 -18 697 43 l 624 256 b 457 179 569 203 519 179 b 294 303 375 179 315 221 l 797 303 b 799 357 799 321 799 340 b 419 768 799 578 679 768 b 40 375 197 768 40 594 l 40 372 b 443 -18 40 139 207 -18 z m 290 438 b 421 574 304 519 351 574 b 551 438 493 574 542 521 z m 317 818 l 503 818 l 707 996 l 461 1075 z "},"è":{"ha":840,"x_min":0,"x_max":0,"o":"m 443 -18 b 769 135 593 -18 697 43 l 624 256 b 457 179 569 203 519 179 b 294 303 375 179 315 221 l 797 303 b 799 357 799 321 799 340 b 419 768 799 578 679 768 b 40 375 197 768 40 594 l 40 372 b 443 -18 40 139 207 -18 z m 290 438 b 421 574 304 519 351 574 b 551 438 493 574 542 521 z m 339 818 l 525 818 l 381 1075 l 135 996 z "},"ê":{"ha":840,"x_min":0,"x_max":0,"o":"m 443 -18 b 769 135 593 -18 697 43 l 624 256 b 457 179 569 203 519 179 b 294 303 375 179 315 221 l 797 303 b 799 357 799 321 799 340 b 419 768 799 578 679 768 b 40 375 197 768 40 594 l 40 372 b 443 -18 40 139 207 -18 z m 290 438 b 421 574 304 519 351 574 b 551 438 493 574 542 521 z m 136 813 l 303 813 l 419 897 l 536 813 l 706 813 l 528 1042 l 314 1042 z "},"ë":{"ha":840,"x_min":0,"x_max":0,"o":"m 443 -18 b 769 135 593 -18 697 43 l 624 256 b 457 179 569 203 519 179 b 294 303 375 179 315 221 l 797 303 b 799 357 799 321 799 340 b 419 768 799 578 679 768 b 40 375 197 768 40 594 l 40 372 b 443 -18 40 139 207 -18 z m 290 438 b 421 574 304 519 351 574 b 551 438 493 574 542 521 z m 458 815 l 688 815 l 688 1014 l 458 1014 z m 154 815 l 383 815 l 383 1014 l 154 1014 z "},"í":{"ha":417,"x_min":0,"x_max":0,"o":"m 76 0 l 340 0 l 340 751 l 76 751 z m 101 815 l 288 815 l 492 993 l 246 1072 z "},"ì":{"ha":417,"x_min":0,"x_max":0,"o":"m 76 0 l 340 0 l 340 751 l 76 751 z m 133 815 l 319 815 l 175 1072 l -72 993 z "},"î":{"ha":417,"x_min":0,"x_max":0,"o":"m 76 0 l 340 0 l 340 751 l 76 751 z m -75 815 l 92 815 l 208 900 l 325 815 l 494 815 l 317 1044 l 103 1044 z "},"ï":{"ha":417,"x_min":0,"x_max":0,"o":"m 76 0 l 340 0 l 340 751 l 76 751 z m 247 815 l 476 815 l 476 1014 l 247 1014 z m -57 815 l 172 815 l 172 1014 l -57 1014 z "},"ñ":{"ha":881,"x_min":0,"x_max":0,"o":"m 71 0 l 335 0 l 335 407 b 446 533 335 489 382 533 b 551 407 508 533 551 489 l 551 0 l 815 0 l 815 492 b 560 768 815 663 719 768 b 335 646 453 768 383 708 l 335 751 l 71 751 z m 281 806 b 351 869 299 849 313 869 b 568 815 396 869 485 815 b 740 1022 664 815 711 885 l 614 1057 b 543 993 596 1014 582 993 b 326 1047 499 993 410 1047 b 154 840 231 1047 183 978 z "},"ó":{"ha":911,"x_min":0,"x_max":0,"o":"m 454 -18 b 871 375 696 -18 871 161 l 871 378 b 457 768 871 592 697 768 b 40 375 215 768 40 589 l 40 372 b 454 -18 40 158 214 -18 z m 457 206 b 297 375 364 206 297 283 l 297 378 b 454 544 297 468 358 544 b 614 375 547 544 614 467 l 614 372 b 457 206 614 282 553 206 z m 354 818 l 540 818 l 744 996 l 499 1075 z "},"ò":{"ha":911,"x_min":0,"x_max":0,"o":"m 454 -18 b 871 375 696 -18 871 161 l 871 378 b 457 768 871 592 697 768 b 40 375 215 768 40 589 l 40 372 b 454 -18 40 158 214 -18 z m 457 206 b 297 375 364 206 297 283 l 297 378 b 454 544 297 468 358 544 b 614 375 547 544 614 467 l 614 372 b 457 206 614 282 553 206 z m 371 818 l 557 818 l 413 1075 l 167 996 z "},"ô":{"ha":911,"x_min":0,"x_max":0,"o":"m 454 -18 b 871 375 696 -18 871 161 l 871 378 b 457 768 871 592 697 768 b 40 375 215 768 40 589 l 40 372 b 454 -18 40 158 214 -18 z m 457 206 b 297 375 364 206 297 283 l 297 378 b 454 544 297 468 358 544 b 614 375 547 544 614 467 l 614 372 b 457 206 614 282 553 206 z m 171 813 l 338 813 l 454 897 l 571 813 l 740 813 l 563 1042 l 349 1042 z "},"ö":{"ha":911,"x_min":0,"x_max":0,"o":"m 454 -18 b 871 375 696 -18 871 161 l 871 378 b 457 768 871 592 697 768 b 40 375 215 768 40 589 l 40 372 b 454 -18 40 158 214 -18 z m 457 206 b 297 375 364 206 297 283 l 297 378 b 454 544 297 468 358 544 b 614 375 547 544 614 467 l 614 372 b 457 206 614 282 553 206 z m 493 815 l 722 815 l 722 1014 l 493 1014 z m 189 815 l 418 815 l 418 1014 l 189 1014 z "},"õ":{"ha":911,"x_min":0,"x_max":0,"o":"m 454 -18 b 871 375 696 -18 871 161 l 871 378 b 457 768 871 592 697 768 b 40 375 215 768 40 589 l 40 372 b 454 -18 40 158 214 -18 z m 457 206 b 297 375 364 206 297 283 l 297 378 b 454 544 297 468 358 544 b 614 375 547 544 614 467 l 614 372 b 457 206 614 282 553 206 z m 289 806 b 360 869 307 849 321 869 b 576 815 404 869 493 815 b 749 1022 672 815 719 885 l 622 1057 b 551 993 604 1014 590 993 b 335 1047 507 993 418 1047 b 163 840 239 1047 192 978 z "},"ú":{"ha":881,"x_min":0,"x_max":0,"o":"m 321 -17 b 546 103 428 -17 497 40 l 546 0 l 810 0 l 810 751 l 546 751 l 546 344 b 436 218 546 263 499 218 b 329 344 372 218 329 263 l 329 751 l 65 751 l 65 260 b 321 -17 65 89 161 -17 z m 317 815 l 503 815 l 707 993 l 461 1072 z "},"ù":{"ha":881,"x_min":0,"x_max":0,"o":"m 321 -17 b 546 103 428 -17 497 40 l 546 0 l 810 0 l 810 751 l 546 751 l 546 344 b 436 218 546 263 499 218 b 329 344 372 218 329 263 l 329 751 l 65 751 l 65 260 b 321 -17 65 89 161 -17 z m 378 815 l 564 815 l 419 1072 l 174 993 z "},"û":{"ha":881,"x_min":0,"x_max":0,"o":"m 321 -17 b 546 103 428 -17 497 40 l 546 0 l 810 0 l 810 751 l 546 751 l 546 344 b 436 218 546 263 499 218 b 329 344 372 218 329 263 l 329 751 l 65 751 l 65 260 b 321 -17 65 89 161 -17 z m 156 815 l 322 815 l 439 900 l 556 815 l 725 815 l 547 1044 l 333 1044 z "},"ü":{"ha":881,"x_min":0,"x_max":0,"o":"m 321 -17 b 546 103 428 -17 497 40 l 546 0 l 810 0 l 810 751 l 546 751 l 546 344 b 436 218 546 263 499 218 b 329 344 372 218 329 263 l 329 751 l 65 751 l 65 260 b 321 -17 65 89 161 -17 z m 478 815 l 707 815 l 707 1014 l 478 1014 z m 174 815 l 403 815 l 403 1014 l 174 1014 z "},"°":{"ha":656,"x_min":0,"x_max":0,"o":"m 328 489 b 581 733 464 489 581 599 l 581 736 b 328 983 581 871 461 983 b 75 736 193 983 75 871 l 75 733 b 328 489 75 599 192 489 z m 328 617 b 211 733 261 617 211 669 l 211 736 b 328 854 211 801 263 854 b 444 736 392 854 444 801 l 444 733 b 328 617 444 669 394 617 z "},"®":{"ha":1153,"x_min":0,"x_max":0,"o":"m 575 -19 b 1079 486 857 -19 1079 213 l 1079 489 b 578 992 1079 763 860 992 b 74 486 296 992 74 760 l 74 483 b 575 -19 74 210 293 -19 z m 575 36 b 132 483 322 36 132 238 l 132 486 b 578 936 132 732 324 936 b 1021 489 831 936 1021 735 l 1021 486 b 575 36 1021 240 829 36 z m 356 233 l 504 233 l 504 396 l 567 396 l 569 396 l 678 233 l 849 233 l 721 419 b 831 583 788 447 831 501 l 831 586 b 785 708 831 638 815 678 b 604 768 747 746 689 768 l 356 768 z m 504 511 l 504 640 l 600 640 b 682 576 650 640 682 619 l 682 574 b 601 511 682 535 653 511 z "},"©":{"ha":1153,"x_min":0,"x_max":0,"o":"m 575 -19 b 1079 486 857 -19 1079 213 l 1079 489 b 578 992 1079 763 860 992 b 74 486 296 992 74 760 l 74 483 b 575 -19 74 210 293 -19 z m 575 36 b 132 483 322 36 132 238 l 132 486 b 578 936 132 732 324 936 b 1021 489 831 936 1021 735 l 1021 486 b 575 36 1021 240 829 36 z m 583 217 b 817 336 699 217 765 267 l 703 417 b 583 353 671 379 639 353 b 458 492 510 353 458 414 l 458 494 b 583 633 458 571 510 633 b 700 571 635 633 669 608 l 813 660 b 588 769 764 725 697 769 b 304 493 419 769 304 644 l 304 490 b 583 217 304 336 421 217 z "},"™":{"ha":965,"x_min":0,"x_max":0,"o":"m 464 544 l 581 544 l 581 794 l 689 625 l 693 625 l 801 794 l 801 544 l 919 544 l 919 972 l 794 972 l 692 807 l 590 972 l 464 972 z m 150 544 l 269 544 l 269 868 l 397 868 l 397 972 l 22 972 l 22 868 l 150 868 z "},"±":{"ha":858,"x_min":0,"x_max":0,"o":"m 440 -19 b 821 283 679 -19 821 110 l 821 286 b 650 504 821 406 749 471 b 796 729 736 544 796 614 l 796 732 b 438 992 796 881 654 992 b 53 814 250 992 139 915 l 219 658 b 414 764 275 719 336 764 b 536 679 489 764 536 729 l 536 676 b 399 592 536 628 496 592 l 300 592 l 300 389 l 401 389 b 557 304 508 389 557 357 l 557 301 b 426 208 557 249 508 208 b 190 318 333 208 260 249 l 22 153 b 440 -19 122 46 260 -19 z "},"µ":{"ha":1154,"x_min":0,"x_max":0,"o":"m 844 -122 l 1204 -122 l 1204 -108 l 961 142 b 1100 486 1049 231 1100 353 l 1100 489 b 578 992 1100 768 878 992 b 53 486 278 992 53 765 l 53 483 b 575 -18 53 204 275 -18 b 719 0 625 -18 674 -11 z m 578 224 b 329 486 431 224 329 346 l 329 489 b 575 749 329 629 428 749 b 825 486 724 749 825 626 l 825 483 b 578 224 825 343 726 224 z "},"π":{"ha":1153,"x_min":0,"x_max":0,"o":"m 575 -19 b 1079 486 857 -19 1079 213 l 1079 489 b 578 992 1079 763 860 992 b 74 486 296 992 74 760 l 74 483 b 575 -19 74 210 293 -19 z m 575 36 b 132 483 322 36 132 238 l 132 486 b 578 936 132 732 324 936 b 1021 489 831 936 1021 735 l 1021 486 b 575 36 1021 240 829 36 z m 379 228 l 529 228 l 529 381 l 603 381 b 832 571 733 381 832 447 l 832 574 b 608 763 832 693 744 763 l 379 763 z m 529 497 l 529 638 l 597 638 b 682 568 650 638 682 614 l 682 565 b 597 497 682 524 650 497 z "},"Ω":{"ha":1122,"x_min":0,"x_max":0,"o":"m 679 0 l 942 0 l 942 540 l 1110 540 l 1110 743 l 938 743 l 938 761 b 1013 832 938 810 964 832 b 1111 817 1050 832 1081 826 l 1111 1003 b 939 1024 1069 1015 1019 1024 b 743 958 850 1024 788 1004 b 679 764 699 914 679 850 l 679 743 l 590 743 l 590 540 l 679 540 z m 118 0 l 381 0 l 381 540 l 549 540 l 549 743 l 376 743 l 376 761 b 451 832 376 810 403 832 b 550 817 489 832 519 826 l 550 1003 b 378 1024 508 1015 458 1024 b 182 958 289 1024 228 1004 b 118 764 138 914 118 850 l 118 747 l 31 747 l 31 540 l 118 540 z "},"√":{"ha":1539,"x_min":0,"x_max":0,"o":"m 679 0 l 942 0 l 942 540 l 1110 540 l 1110 743 l 938 743 l 938 761 b 1013 832 938 810 964 832 b 1111 817 1050 832 1081 826 l 1111 1003 b 939 1024 1069 1015 1019 1024 b 743 958 850 1024 788 1004 b 679 764 699 914 679 850 l 679 743 l 590 743 l 590 540 l 679 540 z m 118 0 l 381 0 l 381 540 l 549 540 l 549 743 l 376 743 l 376 761 b 451 832 376 810 403 832 b 550 817 489 832 519 826 l 550 1003 b 378 1024 508 1015 458 1024 b 182 958 289 1024 228 1004 b 118 764 138 914 118 850 l 118 747 l 31 747 l 31 540 l 118 540 z m 1199 0 l 1463 0 l 1463 1014 l 1199 1014 z "},"≈":{"ha":1539,"x_min":0,"x_max":0,"o":"m 1193 819 l 1468 819 l 1468 1014 l 1193 1014 z m 679 0 l 942 0 l 942 540 l 1110 540 l 1110 743 l 938 743 l 938 761 b 1013 832 938 810 964 832 b 1111 817 1050 832 1081 826 l 1111 1003 b 939 1024 1069 1015 1019 1024 b 743 958 850 1024 788 1004 b 679 764 699 914 679 850 l 679 743 l 590 743 l 590 540 l 679 540 z m 118 0 l 381 0 l 381 540 l 549 540 l 549 743 l 376 743 l 376 761 b 451 832 376 810 403 832 b 550 817 489 832 519 826 l 550 1003 b 378 1024 508 1015 458 1024 b 182 958 289 1024 228 1004 b 118 764 138 914 118 850 l 118 747 l 31 747 l 31 540 l 118 540 z m 1199 0 l 1463 0 l 1463 751 l 1199 751 z "}," ":{"ha":385,"x_min":0,"x_max":0,"o":""},"À":{"ha":1104,"x_min":0,"x_max":0,"o":"m 8 0 l 292 0 l 361 174 l 736 174 l 807 0 l 1096 0 l 682 979 l 422 979 z m 440 383 l 550 660 l 658 383 z m 476 1038 l 663 1038 l 518 1294 l 272 1215 z "},"Ã":{"ha":1104,"x_min":0,"x_max":0,"o":"m 8 0 l 292 0 l 361 174 l 736 174 l 807 0 l 1096 0 l 682 979 l 422 979 z m 440 383 l 550 660 l 658 383 z m 386 1028 b 457 1092 404 1071 418 1092 b 674 1038 501 1092 590 1038 b 846 1244 769 1038 817 1107 l 719 1279 b 649 1215 701 1236 688 1215 b 432 1269 604 1215 515 1269 b 260 1063 336 1269 289 1200 z "},"Õ":{"ha":1154,"x_min":0,"x_max":0,"o":"m 575 -19 b 1100 486 875 -19 1100 207 l 1100 489 b 578 992 1100 768 878 992 b 53 486 278 992 53 765 l 53 483 b 575 -19 53 204 275 -19 z m 578 224 b 329 486 431 224 329 346 l 329 489 b 575 749 329 629 428 749 b 825 486 724 749 825 626 l 825 483 b 578 224 825 343 726 224 z m 411 1028 b 482 1092 429 1071 443 1092 b 699 1038 526 1092 615 1038 b 871 1244 794 1038 842 1107 l 744 1279 b 674 1215 726 1236 713 1215 b 457 1269 629 1215 540 1269 b 285 1063 361 1269 314 1200 z "},"ÿ":{"ha":869,"x_min":0,"x_max":0,"o":"m 293 -226 b 579 18 443 -226 514 -157 l 854 751 l 583 751 l 442 299 l 292 751 l 15 751 l 310 14 b 249 -17 293 -10 275 -17 b 133 24 219 -17 175 -1 l 51 -161 b 293 -226 121 -200 200 -226 z m 471 815 l 700 815 l 700 1014 l 471 1014 z m 167 815 l 396 815 l 396 1014 l 167 1014 z "},"Ÿ":{"ha":1004,"x_min":0,"x_max":0,"o":"m 367 0 l 638 0 l 638 368 l 1007 972 l 706 972 l 504 618 l 304 972 l -3 972 l 367 364 z m 540 1038 l 769 1038 l 769 1236 l 540 1236 z m 236 1038 l 465 1038 l 465 1236 l 236 1236 z "},"Â":{"ha":1104,"x_min":0,"x_max":0,"o":"m 8 0 l 292 0 l 361 174 l 736 174 l 807 0 l 1096 0 l 682 979 l 422 979 z m 440 383 l 550 660 l 658 383 z m 268 1038 l 435 1038 l 551 1122 l 668 1038 l 838 1038 l 660 1267 l 446 1267 z "},"Ê":{"ha":926,"x_min":0,"x_max":0,"o":"m 86 0 l 875 0 l 875 229 l 353 229 l 353 383 l 819 383 l 819 596 l 353 596 l 353 743 l 868 743 l 868 972 l 86 972 z m 194 1038 l 361 1038 l 478 1122 l 594 1038 l 764 1038 l 586 1267 l 372 1267 z "},"Á":{"ha":1104,"x_min":0,"x_max":0,"o":"m 8 0 l 292 0 l 361 174 l 736 174 l 807 0 l 1096 0 l 682 979 l 422 979 z m 440 383 l 550 660 l 658 383 z m 443 1038 l 629 1038 l 833 1215 l 588 1294 z "},"Ë":{"ha":926,"x_min":0,"x_max":0,"o":"m 86 0 l 875 0 l 875 229 l 353 229 l 353 383 l 819 383 l 819 596 l 353 596 l 353 743 l 868 743 l 868 972 l 86 972 z m 517 1038 l 746 1038 l 746 1236 l 517 1236 z m 213 1038 l 442 1038 l 442 1236 l 213 1236 z "},"È":{"ha":926,"x_min":0,"x_max":0,"o":"m 86 0 l 875 0 l 875 229 l 353 229 l 353 383 l 819 383 l 819 596 l 353 596 l 353 743 l 868 743 l 868 972 l 86 972 z m 435 1038 l 621 1038 l 476 1294 l 231 1215 z "},"Í":{"ha":454,"x_min":0,"x_max":0,"o":"m 92 0 l 363 0 l 363 972 l 92 972 z m 121 1038 l 307 1038 l 511 1215 l 265 1294 z "},"Î":{"ha":454,"x_min":0,"x_max":0,"o":"m 92 0 l 363 0 l 363 972 l 92 972 z m -58 1038 l 110 1038 l 226 1122 l 343 1038 l 513 1038 l 335 1267 l 121 1267 z "},"Ï":{"ha":454,"x_min":0,"x_max":0,"o":"m 92 0 l 363 0 l 363 972 l 92 972 z m 265 1038 l 494 1038 l 494 1236 l 265 1236 z m -40 1038 l 190 1038 l 190 1236 l -40 1236 z "},"Ì":{"ha":454,"x_min":0,"x_max":0,"o":"m 92 0 l 363 0 l 363 972 l 92 972 z m 147 1038 l 333 1038 l 189 1294 l -57 1215 z "},"Ó":{"ha":1154,"x_min":0,"x_max":0,"o":"m 575 -19 b 1100 486 875 -19 1100 207 l 1100 489 b 578 992 1100 768 878 992 b 53 486 278 992 53 765 l 53 483 b 575 -19 53 204 275 -19 z m 578 224 b 329 486 431 224 329 346 l 329 489 b 575 749 329 629 428 749 b 825 486 724 749 825 626 l 825 483 b 578 224 825 343 726 224 z m 482 1038 l 668 1038 l 872 1215 l 626 1294 z "},"Ô":{"ha":1154,"x_min":0,"x_max":0,"o":"m 575 -19 b 1100 486 875 -19 1100 207 l 1100 489 b 578 992 1100 768 878 992 b 53 486 278 992 53 765 l 53 483 b 575 -19 53 204 275 -19 z m 578 224 b 329 486 431 224 329 346 l 329 489 b 575 749 329 629 428 749 b 825 486 724 749 825 626 l 825 483 b 578 224 825 343 726 224 z m 293 1035 l 460 1035 l 576 1119 l 693 1035 l 863 1035 l 685 1264 l 471 1264 z "},"":{"ha":1343,"x_min":0,"x_max":0,"o":"m 1206 0 l 1206 1042 l 140 1042 l 140 0 z m 1193 -144 l 1185 -97 l 1183 -97 l 1165 -133 l 1147 -97 l 1146 -97 l 1138 -144 l 1146 -144 l 1150 -117 l 1164 -146 l 1167 -146 l 1181 -117 l 1185 -144 z m 1119 -121 b 1097 -97 1119 -108 1110 -97 b 1072 -122 1082 -97 1072 -108 b 1096 -146 1072 -135 1082 -146 b 1119 -121 1110 -146 1119 -135 z m 1053 -133 b 1039 -139 1049 -136 1043 -139 b 1021 -121 1029 -139 1021 -133 b 1038 -104 1021 -111 1029 -104 b 1050 -108 1042 -104 1047 -106 l 1053 -101 b 1038 -97 1049 -99 1043 -97 b 1013 -122 1024 -97 1013 -108 b 1038 -146 1013 -136 1022 -146 b 1051 -142 1043 -146 1049 -144 z m 975 -99 l 965 -99 l 953 -118 l 938 -97 l 929 -99 l 949 -125 l 949 -144 l 957 -144 l 957 -125 z m 911 -144 l 911 -99 l 903 -99 l 903 -117 l 881 -117 l 881 -99 l 872 -99 l 872 -144 l 881 -144 l 881 -124 l 903 -124 l 903 -144 z m 850 -114 b 818 -99 850 -104 843 -96 b 818 -144 818 -99 818 -142 l 826 -144 l 826 -131 b 850 -114 840 -131 850 -125 z m 800 -144 l 778 -97 l 775 -97 l 754 -144 l 763 -144 l 767 -133 l 786 -133 l 792 -144 z m 742 -144 l 728 -126 b 738 -112 733 -124 738 -119 b 706 -99 738 -104 731 -96 l 706 -144 l 714 -144 l 714 -129 l 721 -129 l 732 -144 z m 682 -140 l 682 -119 l 661 -119 l 661 -126 l 674 -126 l 674 -136 b 665 -139 671 -137 668 -139 b 647 -122 656 -139 647 -132 b 664 -104 647 -111 654 -104 b 679 -110 669 -104 676 -107 l 682 -103 b 665 -97 678 -100 671 -97 b 639 -122 650 -97 639 -108 b 664 -146 639 -136 650 -146 b 682 -140 671 -146 678 -143 z m 621 -121 b 599 -97 621 -108 611 -97 b 574 -122 583 -97 574 -108 b 597 -146 574 -135 583 -146 b 621 -121 611 -146 621 -135 z m 556 -114 b 524 -99 556 -104 549 -96 b 524 -144 524 -99 524 -142 l 532 -144 l 532 -131 b 556 -114 546 -131 556 -125 z m 506 -99 l 496 -99 l 483 -118 l 468 -97 l 460 -99 l 479 -125 l 479 -144 l 488 -144 l 488 -125 z m 449 -99 l 407 -99 l 407 -106 l 424 -106 l 424 -144 l 432 -144 l 432 -106 l 449 -106 z m 371 -99 l 363 -99 l 353 -129 l 339 -97 l 338 -97 l 324 -129 l 314 -97 l 306 -99 l 322 -146 l 324 -146 l 338 -114 l 353 -146 l 354 -146 z m 293 -99 l 285 -99 l 275 -129 l 261 -97 l 260 -97 l 246 -129 l 236 -97 l 228 -99 l 244 -146 l 246 -146 l 260 -114 l 275 -146 l 276 -146 z m 215 -99 l 207 -99 l 197 -129 l 183 -97 l 182 -97 l 168 -129 l 158 -97 l 150 -99 l 167 -146 l 168 -146 l 182 -114 l 197 -146 l 199 -146 z m 994 -140 b 989 -135 994 -137 992 -135 b 983 -140 985 -135 983 -137 b 989 -146 983 -143 986 -146 b 994 -140 993 -146 994 -143 z m 394 -140 b 389 -135 394 -137 392 -135 b 383 -140 385 -135 383 -137 b 389 -146 383 -143 386 -146 b 394 -140 393 -146 394 -143 z m 776 953 l 774 953 b 760 965 774 953 769 965 b 756 961 757 965 756 964 l 756 929 b 763 922 756 921 763 922 l 763 919 l 739 919 l 739 922 b 746 929 739 922 746 921 l 746 961 b 742 965 746 964 746 965 b 728 953 733 965 728 953 l 725 953 b 726 969 725 953 726 964 b 751 968 731 968 738 968 b 775 969 764 968 772 968 b 776 953 776 964 776 953 z m 700 919 l 675 919 l 675 922 b 682 929 675 922 682 921 l 682 943 l 658 943 l 658 929 b 665 922 658 922 665 922 l 665 919 l 642 919 l 642 922 b 649 929 642 922 649 922 l 649 958 b 642 965 649 967 642 965 l 642 968 l 665 968 l 665 967 l 665 965 b 658 958 665 965 658 967 l 658 946 l 682 946 l 682 958 b 675 965 682 967 675 965 l 675 967 l 675 968 l 700 968 l 700 965 b 692 958 700 965 692 967 l 692 929 b 700 922 692 921 700 922 z m 610 922 l 610 919 l 568 919 l 565 935 l 568 936 b 582 924 568 936 572 924 l 588 924 b 593 928 590 924 593 924 l 593 943 l 588 943 b 579 935 579 943 579 935 l 576 935 l 576 953 l 579 953 b 588 946 579 953 579 946 l 593 946 l 593 960 b 588 964 593 964 590 964 l 582 964 b 569 953 574 964 569 953 l 567 954 l 569 968 l 610 968 l 610 965 b 603 958 610 965 603 967 l 603 929 b 610 922 603 921 610 922 z m 1149 858 l 197 858 l 197 867 l 1149 867 z m 967 750 b 935 719 967 728 947 719 b 883 772 908 719 883 743 b 915 803 883 794 903 803 b 967 750 942 803 967 778 z m 818 746 b 783 719 818 732 807 719 b 761 738 771 719 761 728 b 774 751 761 744 767 751 b 783 744 779 751 783 749 b 778 738 783 740 781 738 b 771 740 774 738 772 740 b 767 736 768 740 767 739 b 783 724 767 729 774 724 b 800 743 793 724 800 731 b 792 764 800 753 797 760 b 776 757 788 760 783 757 b 765 765 771 757 765 761 b 788 774 765 774 775 775 b 790 782 789 775 790 776 b 776 799 790 792 786 799 b 767 792 771 799 767 796 b 771 783 767 788 771 789 b 765 779 771 782 769 779 b 758 788 761 779 758 783 b 776 803 758 796 765 803 b 806 782 797 803 806 790 b 799 769 806 776 803 772 b 818 746 811 765 818 756 z m 410 746 b 375 719 410 732 399 719 b 353 738 363 719 353 728 b 365 751 353 744 358 751 b 375 744 371 751 375 749 b 369 738 375 740 372 738 b 363 740 365 738 364 740 b 358 736 360 740 358 739 b 375 724 358 729 365 724 b 392 743 385 724 392 731 b 383 764 392 753 389 760 b 368 757 379 760 375 757 b 357 765 363 757 357 761 b 379 774 357 774 367 775 b 382 782 381 775 382 776 b 368 799 382 792 378 799 b 358 792 363 799 358 796 b 363 783 358 788 363 789 b 357 779 363 782 361 779 b 350 788 353 779 350 783 b 368 803 350 796 357 803 b 397 782 389 803 397 790 b 390 769 397 776 394 772 b 410 746 403 765 410 756 z m 1139 725 l 1140 721 l 1100 721 l 1099 725 b 1108 736 1099 725 1111 724 l 1104 758 l 1071 758 l 1075 736 b 1089 725 1078 724 1089 725 l 1090 721 l 1050 721 l 1049 725 b 1058 736 1049 725 1061 724 l 1049 785 b 1035 796 1046 797 1035 796 l 1033 800 l 1074 800 l 1075 796 b 1065 785 1075 796 1063 797 l 1069 764 l 1103 764 l 1099 785 b 1086 796 1096 797 1086 796 l 1085 800 l 1124 800 l 1125 796 b 1115 785 1125 796 1113 797 l 1125 736 b 1139 725 1128 724 1139 725 z m 692 721 l 651 721 l 650 725 b 660 736 650 725 663 724 l 656 760 l 650 760 b 639 744 638 760 639 744 l 635 744 l 628 776 l 632 776 b 649 764 632 776 636 764 l 654 764 l 650 786 b 642 794 649 793 646 794 l 636 794 b 618 776 617 794 618 776 l 613 776 b 613 800 613 776 614 794 b 675 800 629 800 675 800 l 676 796 b 667 785 676 796 664 797 l 676 736 b 690 725 679 724 690 725 z m 281 725 l 282 721 l 242 721 l 240 725 b 250 736 240 725 253 724 l 246 757 b 239 753 243 757 240 756 l 222 721 b 196 721 211 721 196 721 l 194 725 b 214 736 194 725 207 724 l 226 758 b 200 779 213 760 200 768 b 228 800 200 793 211 800 b 265 800 244 800 265 800 l 267 796 b 257 785 267 796 254 797 l 267 736 b 281 725 269 724 281 725 z m 556 724 b 550 719 556 721 553 719 b 533 729 543 719 536 724 b 499 711 518 729 524 711 b 478 728 489 711 478 719 b 485 738 478 732 479 738 b 492 731 489 738 492 735 b 489 724 492 728 489 728 b 496 718 489 721 492 718 b 528 736 506 718 508 736 b 499 799 504 757 517 799 b 492 790 493 799 492 794 b 486 782 492 785 492 782 b 479 789 482 782 479 785 b 497 803 479 794 488 803 b 538 736 540 803 524 746 b 556 724 550 735 556 728 z m 1149 660 l 197 660 l 197 668 l 1149 668 z m 1149 525 l 1099 525 l 1099 564 l 1083 564 l 1083 474 l 1103 474 l 1103 428 l 990 428 l 990 474 l 1010 474 l 1010 564 l 994 564 l 994 525 l 944 525 l 944 611 l 1149 611 z m 900 564 l 881 564 l 829 501 l 829 474 l 850 474 l 850 428 l 738 428 l 738 474 l 757 474 l 757 500 l 706 564 l 689 564 l 689 611 l 775 611 l 775 564 l 761 564 l 782 532 l 803 564 l 788 564 l 788 611 l 900 611 z m 636 428 l 524 428 l 524 474 l 544 474 l 544 500 l 503 500 b 438 556 463 500 438 524 b 503 611 438 586 463 611 l 636 611 l 636 564 l 617 564 l 617 474 l 636 474 z m 393 428 l 197 428 l 197 513 l 254 513 l 254 474 l 300 474 l 300 503 l 267 503 l 267 536 l 300 536 l 300 564 l 254 564 l 254 525 l 197 525 l 197 611 l 393 611 l 393 564 l 374 564 l 374 474 l 393 474 z m 1149 376 l 197 376 l 197 385 l 1149 385 z m 1011 267 b 979 236 1011 244 992 236 b 928 289 953 236 928 260 b 960 319 928 311 947 319 b 1011 267 986 319 1011 294 z m 282 301 l 279 299 b 263 308 275 303 271 308 b 250 290 254 308 250 301 b 257 256 250 283 253 269 b 271 243 261 240 271 243 l 272 238 l 233 238 l 232 243 b 240 264 232 243 246 240 b 207 310 235 286 225 310 b 196 301 200 310 196 307 l 192 303 b 208 319 192 314 200 319 b 238 288 224 319 232 306 b 257 319 236 310 244 319 b 282 301 271 319 276 311 z m 1143 238 l 1103 238 l 1101 242 b 1111 253 1101 242 1114 240 l 1107 276 l 1101 276 b 1090 261 1089 276 1090 261 l 1086 261 l 1079 293 l 1083 293 b 1100 281 1083 293 1088 281 l 1106 281 l 1101 303 b 1093 311 1100 310 1097 311 l 1088 311 b 1069 293 1068 311 1069 293 l 1064 293 b 1064 317 1064 293 1065 311 b 1126 317 1081 317 1126 317 l 1128 313 b 1118 301 1128 313 1115 314 l 1128 253 b 1142 242 1131 240 1142 242 z m 863 313 b 851 300 863 313 847 315 l 858 269 b 832 236 861 256 864 236 b 793 274 807 236 796 258 l 788 300 b 772 313 785 314 772 313 l 771 317 l 804 317 l 804 313 b 794 300 804 313 792 315 l 800 274 b 828 243 804 257 813 243 b 843 271 847 243 847 253 l 836 300 b 822 313 833 314 822 313 l 821 317 l 861 317 z m 725 242 l 726 238 l 697 238 l 696 242 b 704 256 696 242 707 240 l 696 297 l 654 236 l 650 238 l 639 300 b 626 313 636 313 626 313 l 625 317 l 654 317 l 656 313 b 646 300 656 313 643 313 l 653 258 l 693 317 l 713 317 l 714 313 b 703 300 714 313 700 314 l 713 256 b 725 242 717 242 725 242 z m 575 238 b 531 238 575 238 546 238 b 482 286 507 238 482 257 b 517 317 482 307 500 317 b 558 317 526 317 546 317 l 560 313 b 549 299 549 311 546 307 l 560 256 b 574 243 564 240 574 243 z m 425 242 l 426 238 l 386 238 l 385 242 b 394 253 385 242 397 240 l 390 274 b 383 269 388 274 385 272 l 367 238 b 340 238 356 238 340 238 l 339 242 b 358 253 339 242 351 240 l 371 275 b 344 296 357 276 344 285 b 372 317 344 310 356 317 b 410 317 389 317 410 317 l 411 313 b 401 301 411 313 399 314 l 411 253 b 425 242 414 240 425 242 z m 1149 176 l 197 176 l 197 185 l 1149 185 z m 964 64 l 944 64 l 944 67 b 951 74 944 67 951 68 l 951 101 l 917 63 l 913 63 l 913 101 b 904 110 913 108 904 110 l 904 113 l 925 113 l 925 110 b 917 101 925 110 917 108 l 917 76 l 950 113 l 964 113 l 964 110 b 956 101 964 110 956 106 l 956 74 b 964 67 956 68 964 67 z m 879 67 l 879 64 l 838 64 l 835 79 l 838 81 b 851 68 838 81 842 68 l 857 68 b 863 72 860 68 863 68 l 863 88 l 857 88 b 849 79 849 88 849 79 l 846 79 l 846 97 l 849 97 b 857 90 849 97 849 90 l 863 90 l 863 104 b 857 108 863 108 860 108 l 851 108 b 839 97 843 108 839 97 l 836 99 l 839 113 l 879 113 l 879 110 b 872 103 879 110 872 111 l 872 74 b 879 67 872 65 879 67 z m 810 113 l 810 110 b 800 101 810 110 804 110 l 783 64 l 782 64 l 769 86 l 758 64 b 757 64 758 63 757 64 l 756 64 l 738 101 b 729 110 735 108 729 110 l 729 113 l 747 113 l 747 110 b 744 101 747 110 742 108 l 756 76 l 765 94 l 761 101 b 751 110 756 110 751 110 l 750 113 l 786 113 l 786 110 b 778 101 786 110 781 107 l 772 90 l 779 76 l 792 103 b 789 110 794 108 789 110 l 789 113 z m 667 110 b 657 103 667 110 661 110 l 646 86 l 646 75 b 653 67 646 67 653 67 l 653 64 l 629 64 l 629 67 b 636 75 629 67 636 67 l 636 86 l 625 103 b 614 110 621 110 614 110 l 614 113 l 635 113 l 635 110 b 631 103 635 110 626 110 l 639 90 l 647 103 b 646 110 651 110 646 110 l 646 113 l 667 113 z m 590 89 b 563 63 590 75 581 63 b 535 89 544 63 535 75 b 563 114 535 103 544 114 b 590 89 581 114 590 103 z m 506 64 l 482 64 l 482 67 b 489 74 482 67 489 67 l 489 86 b 479 81 483 86 483 86 l 469 64 l 454 64 l 454 67 b 465 74 454 67 460 67 l 475 88 b 463 100 468 90 463 94 b 481 113 463 107 469 113 b 506 113 492 113 506 113 l 506 110 b 499 101 506 110 499 110 l 499 74 b 506 67 499 67 506 67 z m 429 64 l 404 64 l 404 67 b 413 75 404 67 413 67 l 413 88 b 407 85 410 88 408 86 l 396 74 b 399 67 390 67 399 67 l 399 64 l 375 64 l 375 67 b 385 74 375 67 382 71 l 403 92 l 389 104 b 378 110 385 108 378 110 l 378 113 l 397 113 l 397 110 b 396 104 397 110 392 108 l 407 93 b 413 90 408 92 410 90 l 413 103 b 404 110 413 110 404 110 l 404 113 l 429 113 l 429 110 b 421 103 429 110 421 110 l 421 75 b 429 67 421 68 429 67 z m 842 -115 b 826 -124 842 -122 835 -124 l 826 -106 b 842 -115 838 -104 842 -108 z m 729 -114 b 714 -122 729 -118 726 -124 l 714 -106 b 729 -114 722 -104 729 -107 z m 547 -115 b 532 -124 547 -121 540 -124 l 532 -106 b 547 -115 543 -104 547 -108 z m 783 -128 l 769 -128 l 776 -111 z m 1111 -122 b 1096 -139 1111 -132 1104 -139 b 1081 -121 1088 -139 1081 -132 b 1096 -104 1081 -111 1088 -104 b 1111 -122 1104 -104 1111 -110 z m 613 -122 b 597 -139 613 -132 606 -139 b 582 -121 589 -139 582 -132 b 597 -104 582 -111 589 -104 b 613 -122 606 -104 613 -110 z m 244 761 l 240 788 b 228 794 239 793 236 794 b 217 782 219 794 217 790 b 238 761 217 774 222 761 z m 786 768 b 776 769 783 769 779 769 b 771 765 772 769 771 768 b 776 763 771 764 772 763 b 786 768 779 763 783 764 z m 378 768 b 368 769 375 769 371 769 b 363 765 364 769 363 768 b 368 763 363 764 364 763 b 378 768 371 763 375 764 z m 950 743 b 915 797 950 772 932 797 b 900 778 906 797 900 790 b 935 725 900 750 918 725 b 950 743 946 725 950 731 z m 544 533 l 544 564 l 529 564 b 511 549 517 564 511 557 b 529 533 511 540 517 533 z m 389 278 l 385 304 b 372 311 383 310 381 311 b 361 299 364 311 361 307 b 382 278 361 290 367 278 z m 994 260 b 960 314 994 289 976 314 b 944 294 950 314 944 307 b 979 242 944 267 963 242 b 994 260 990 242 994 247 z m 546 253 l 533 301 b 525 311 531 310 531 310 l 517 311 b 497 288 504 311 497 303 b 533 243 497 265 513 243 l 540 243 b 546 253 544 243 546 244 z m 768 110 b 768 97 765 110 763 107 b 768 110 772 106 774 110 z m 489 89 l 489 103 b 483 108 489 107 488 108 b 474 100 476 108 474 104 b 485 89 474 92 479 89 b 489 89 488 89 488 89 z m 579 89 b 563 111 579 101 575 111 b 546 89 551 111 546 101 b 563 65 546 76 551 65 b 579 89 575 65 579 76 z "},"Ò":{"ha":1154,"x_min":0,"x_max":0,"o":"m 575 -19 b 1100 486 875 -19 1100 207 l 1100 489 b 578 992 1100 768 878 992 b 53 486 278 992 53 765 l 53 483 b 575 -19 53 204 275 -19 z m 578 224 b 329 486 431 224 329 346 l 329 489 b 575 749 329 629 428 749 b 825 486 724 749 825 626 l 825 483 b 578 224 825 343 726 224 z m 488 1038 l 674 1038 l 529 1294 l 283 1215 z "},"Ú":{"ha":1053,"x_min":0,"x_max":0,"o":"m 524 -18 b 979 433 800 -18 979 119 l 979 972 l 706 972 l 706 425 b 526 225 706 289 635 225 b 347 432 418 225 347 292 l 347 972 l 74 972 l 74 426 b 524 -18 74 122 247 -18 z m 418 1031 l 604 1031 l 808 1208 l 563 1288 z "},"Û":{"ha":1053,"x_min":0,"x_max":0,"o":"m 524 -18 b 979 433 800 -18 979 119 l 979 972 l 706 972 l 706 425 b 526 225 706 289 635 225 b 347 432 418 225 347 292 l 347 972 l 74 972 l 74 426 b 524 -18 74 122 247 -18 z m 242 1038 l 408 1038 l 525 1122 l 642 1038 l 811 1038 l 633 1267 l 419 1267 z "},"Ù":{"ha":1053,"x_min":0,"x_max":0,"o":"m 524 -18 b 979 433 800 -18 979 119 l 979 972 l 706 972 l 706 425 b 526 225 706 289 635 225 b 347 432 418 225 347 292 l 347 972 l 74 972 l 74 426 b 524 -18 74 122 247 -18 z m 449 1031 l 635 1031 l 490 1288 l 244 1208 z "}}}
